<svg xmlns="http://www.w3.org/2000/svg" width="829" height="538" viewBox="0 0 829 538">
  <defs>
    <linearGradient id="banner-a" x1="37.006%" x2="41.38%" y1="69.374%" y2="57.731%">
      <stop offset="0%" stop-color="#FFF" stop-opacity="0"/>
      <stop offset="100%"/>
    </linearGradient>
    <linearGradient id="banner-b" x1="37.006%" x2="46.208%" y1="69.374%" y2="36.493%">
      <stop offset="0%" stop-color="#FFF" stop-opacity="0"/>
      <stop offset="100%"/>
    </linearGradient>
    <linearGradient id="banner-c" x1="0%" x2="104.963%" y1="1.698%" y2="101.921%">
      <stop offset="0%" stop-color="#92A6CB"/>
      <stop offset="100%" stop-color="#5D6D91"/>
    </linearGradient>
    <linearGradient id="banner-d" x1="50%" x2="50%" y1="2.838%" y2="100%">
      <stop offset="0%" stop-color="#83D2FE"/>
      <stop offset="100%" stop-color="#296EC7"/>
    </linearGradient>
    <linearGradient id="banner-e" x1="50%" x2="50%" y1="100%" y2="2.838%">
      <stop offset="0%" stop-color="#4AC5FB"/>
      <stop offset="100%" stop-color="#4CF0CE"/>
    </linearGradient>
    <linearGradient id="banner-f" x1="78.334%" x2="3.037%" y1="100%" y2="26.451%">
      <stop offset="0%" stop-color="#0A3A9A"/>
      <stop offset="100%" stop-color="#5085F6"/>
    </linearGradient>
    <linearGradient id="banner-g" x1="50%" x2="50%" y1="2.838%" y2="100%">
      <stop offset="0%" stop-color="#194965"/>
      <stop offset="100%" stop-color="#296EC7"/>
    </linearGradient>
    <linearGradient id="banner-h" x1="62.784%" x2="32.886%" y1="90.406%" y2="0%">
      <stop offset="0%" stop-opacity="0"/>
      <stop offset="100%"/>
    </linearGradient>
    <linearGradient id="banner-i" x1="50%" x2="50%" y1="100%" y2="2.838%">
      <stop offset="0%" stop-color="#1D2899"/>
      <stop offset="100%" stop-color="#4CF0CE"/>
    </linearGradient>
    <linearGradient id="banner-j" x1="50%" x2="50%" y1="0%" y2="100%">
      <stop offset="0%" stop-color="#B4EC51"/>
      <stop offset="100%" stop-color="#429321"/>
    </linearGradient>
    <linearGradient id="banner-k" x1="50%" x2="50%" y1="2.838%" y2="100%">
      <stop offset="0%" stop-color="#2E5A86"/>
      <stop offset="100%" stop-color="#296EC7"/>
    </linearGradient>
    <linearGradient id="banner-l" x1="50%" x2="50%" y1="2.838%" y2="100%">
      <stop offset="0%" stop-color="#3066A1"/>
      <stop offset="100%" stop-color="#296EC7"/>
    </linearGradient>
    <linearGradient id="banner-m" x1="50%" x2="50%" y1="28.891%" y2="100%">
      <stop offset="0%" stop-color="#FFF" stop-opacity="0"/>
      <stop offset="100%" stop-color="#FFF"/>
    </linearGradient>
    <linearGradient id="banner-n" x1="50%" x2="50%" y1="2.838%" y2="100%">
      <stop offset="0%" stop-color="#2375A4"/>
      <stop offset="100%" stop-color="#082344"/>
    </linearGradient>
    <linearGradient id="banner-o" x1="50%" x2="50%" y1="100%" y2="2.838%">
      <stop offset="0%" stop-color="#83D2FE"/>
      <stop offset="100%" stop-color="#296EC7"/>
    </linearGradient>
    <linearGradient id="banner-p" x1="3.037%" y1="26.451%" y2="26.451%">
      <stop offset="0%" stop-color="#BD8E62"/>
      <stop offset="100%" stop-color="#D6A24B"/>
    </linearGradient>
    <linearGradient id="banner-q" x1="50%" x2="50%" y1="0%" y2="100%">
      <stop offset="0%" stop-color="#FCE000"/>
      <stop offset="100%" stop-color="#F8BD00"/>
    </linearGradient>
    <linearGradient id="banner-r" x1="100%" x2="1.832%" y1="50%" y2="50%">
      <stop offset="0%" stop-color="#EAD1AE"/>
      <stop offset="100%" stop-color="#C8AB71"/>
    </linearGradient>
    <linearGradient id="banner-s" x1="50%" x2="50%" y1="2.838%" y2="100%">
      <stop offset="0%" stop-color="#0C3C58"/>
      <stop offset="100%" stop-color="#296EC7"/>
    </linearGradient>
    <linearGradient id="banner-t" x1="50%" x2="50%" y1="0%" y2="100%">
      <stop offset="0%" stop-color="#FFC32C"/>
      <stop offset="100%" stop-color="#FC894C"/>
    </linearGradient>
    <linearGradient id="banner-u" x1="79.146%" x2="-9.093%" y1="11.107%" y2="50%">
      <stop offset="0%" stop-color="#DFF9FF"/>
      <stop offset="100%" stop-color="#87C7E8"/>
    </linearGradient>
    <linearGradient id="banner-v" x1="50%" x2="50%" y1="5.973%" y2="100%">
      <stop offset="0%" stop-color="#888"/>
      <stop offset="100%" stop-color="#494949"/>
    </linearGradient>
    <linearGradient id="banner-w" x1="50%" x2="50%" y1="0%" y2="100%">
      <stop offset="0%" stop-color="#267298"/>
      <stop offset="100%" stop-color="#74CBA6"/>
    </linearGradient>
    <linearGradient id="banner-x" x1="50%" x2="50%" y1="2.838%" y2="100%">
      <stop offset="0%" stop-color="#57A1E3"/>
      <stop offset="100%" stop-color="#9CFFEA"/>
    </linearGradient>
    <linearGradient id="banner-y" x1="16.072%" y1="0%" y2="83.819%">
      <stop offset="0%" stop-color="#3A7394"/>
      <stop offset="100%" stop-color="#102F57"/>
    </linearGradient>
    <linearGradient id="banner-z" x1="85.692%" x2="10.711%" y1="-3.927%" y2="95.013%">
      <stop offset="0%" stop-color="#024F71"/>
      <stop offset="46.276%" stop-color="#106A9B"/>
      <stop offset="52.644%" stop-color="#0E5F8D"/>
      <stop offset="64.35%" stop-color="#0C4B74"/>
      <stop offset="100%" stop-color="#030E27"/>
    </linearGradient>
  </defs>
  <g fill="none" fill-rule="evenodd">
    <polygon fill="url(#banner-a)" points="732 410.587 624.688 480 450 374.985 556.692 312" opacity=".15"/>
    <polygon fill="url(#banner-b)" points="718.101 551 643 500.739 727.485 451 805 498.908" opacity=".15"/>
    <g transform="translate(451 256)">
      <polygon fill="#204973" points=".5 56.034 .5 64.622 170.29 163.187 267.874 106.493 267.874 97.796 97.66 .077"/>
      <polygon fill="#2460A0" points="231.694 187.255 189.991 163.437 231.694 137.095"/>
      <polygon fill="url(#banner-c)" points="97.632 .205 .336 56.211 170.275 154.422 267.788 98.252" opacity=".847"/>
      <polygon fill="url(#banner-d)" points="267.525 98.288 267.525 167.14 231.713 187.821 231.713 170.175 169.867 163.693 169.867 154.215"/>
      <polygon fill="url(#banner-e)" points="11.793 56.643 90.799 10.457 144.66 41.45 66.805 86.536"/>
      <polygon fill="#80F4F8" points="178.927 91.337 223.757 116.998 201.343 129.736 156.778 103.865"/>
      <polygon fill="#80F4F8" points="152.807 106.725 197.743 132.447 175.502 145.277 131.743 119.873"/>
      <polygon fill="#80F4F8" points="148.811 43.921 249.353 101.948 227.601 115.036 178.454 86.571 151.519 101.948 100.551 72.36"/>
      <polygon fill="#80F4F8" points="75.106 87.413 96.839 74.707 148.295 104.161 126.241 117.098"/>
    </g>
    <path fill="url(#banner-f)" d="M320,440.817872 C320.311767,442.855099 321.534091,445.465365 323.666972,448.648669 C325.799853,451.831973 327.770528,454.949083 329.578996,458 C332.548204,456.727554 334.383889,456.07109 335.086052,456.030608 C335.788215,455.990126 336.759531,454.514176 338,451.602757 L335.933926,445.262134 L332.031891,440.817872 L323.666972,438 L320,440.817872 Z"/>
    <path fill="url(#banner-g)" d="M318,370.115345 C320.099765,376.882778 321.149647,381.478808 321.149647,383.903434 C321.149647,386.32806 322.088966,392.512989 323.967605,402.458222 L323.967605,419.234889 L325.777491,433.300316 L329.14176,452.855007 C331.754387,453.380621 334.59867,452.477183 337.674609,450.144695 C338.406739,440.973042 337.674609,423.257057 337.674609,411.557673 C337.674609,403.758083 337.674609,381.238859 337.674609,344 L318,370.115345 Z"/>
    <polygon fill="url(#banner-h)" points="18 474.725 123.705 536 180 503.084 86.843 451" opacity=".384"/>
    <polygon fill="url(#banner-h)" points="171 380.725 276.705 442 333 409.084 239.843 357" opacity=".384"/>
    <polygon fill="url(#banner-h)" points="323 300.725 428.705 362 485 329.084 391.843 277" opacity=".384"/>
    <polygon fill="url(#banner-i)" points="153.254 356.649 165.206 363.455 276.9 297.338 276.9 88.05 265.993 81.528 153.254 146.115"/>
    <polygon fill="#FFF" points="165.169 363.552 277.429 297.156 277.429 88.244 165.169 152.575"/>
    <polygon fill="url(#banner-e)" points="173.241 343.802 269.357 287.495 269.357 267.006 173.241 321.546"/>
    <polygon fill="url(#banner-e)" points="173.386 315.443 269.503 259.135 269.503 238.647 173.386 293.186"/>
    <polygon fill="url(#banner-e)" points="173.386 287.052 269.503 230.744 269.503 210.256 173.386 264.795"/>
    <polygon fill="url(#banner-e)" points="173.386 258.661 269.503 202.353 269.503 181.865 173.386 236.405"/>
    <polygon fill="url(#banner-j)" points="173.386 227.879 269.503 171.572 269.503 105.745 173.386 160.285"/>
    <polygon fill="#FFF" points="181.603 192.593 222.933 141.131 262.174 144.81 224.466 190.909"/>
    <polygon fill="#2E5A86" points="170.51 380.811 227.564 413.723 281.117 380.811 271.34 366.679 221.219 339.866 178.089 365.242"/>
    <polygon fill="url(#banner-d)" points="227.564 413.723 281.117 380.811 271.34 366.679 227.564 394.18"/>
    <polygon fill="url(#banner-d)" points="227.564 393.997 271.34 366.679 221.219 339.866 178.089 365.242" opacity=".372"/>
    <polygon fill="#272727" points="187.817 365.847 221.304 345.954 260.927 367.885 226.99 388.665"/>
    <path fill="#6682FF" d="M231.832191,168.239215 C229.506675,174.897988 224.35629,179.672666 220.328386,178.903861 C216.300481,178.13492 214.920462,172.11363 217.245978,165.454856 C219.571358,158.796082 224.721879,154.021269 228.749784,154.790209 C232.777689,155.55915 234.157708,161.580441 231.832191,168.239215 Z"/>
    <g fill="#FFF" transform="translate(185.712 193.798)">
      <polygon points="5.153 39.865 3.698 42.834 2.229 41.529 .143 42.716 2.523 44.761 0 49.787 2.071 48.608 3.698 45.321 5.31 46.763 7.396 45.576 4.873 43.423 7.238 38.677"/>
      <polygon points="7.396 45.672 9.918 40.646 7.539 38.602 9.624 37.414 11.093 38.719 12.548 35.75 14.634 34.563 12.269 39.308 14.791 41.462 12.706 42.649 11.093 41.207 9.467 44.493"/>
      <polygon points="14.38 41.146 16.903 36.12 14.524 34.076 16.609 32.888 18.078 34.193 19.533 31.224 21.618 30.037 19.253 34.782 21.776 36.936 19.691 38.123 18.078 36.681 16.451 39.967"/>
      <polygon points="22.187 34.151 22.187 32.531 25.474 30.448 25.474 32.068"/>
      <polygon points="26.296 34.563 28.818 29.537 26.439 27.492 28.524 26.305 29.993 27.61 31.448 24.64 33.534 23.453 31.169 28.198 33.691 30.352 31.606 31.539 29.993 30.097 28.367 33.384"/>
      <polygon points="33.28 30.448 35.803 25.422 33.424 23.378 35.509 22.19 36.978 23.495 38.433 20.526 40.518 19.339 38.153 24.084 40.676 26.238 38.591 27.425 36.978 25.983 35.352 29.269"/>
      <polygon points="40.676 26.333 43.198 21.308 40.819 19.263 42.905 18.076 44.373 19.381 45.828 16.411 47.914 15.224 45.549 19.969 48.071 22.123 45.986 23.31 44.373 21.868 42.747 25.154"/>
      <polygon points="48.482 19.339 48.482 17.718 51.769 15.635 51.769 17.256"/>
      <polygon points="52.18 19.339 54.703 14.313 52.324 12.268 54.409 11.081 55.878 12.386 57.333 9.416 59.418 8.229 57.053 12.974 59.576 15.128 57.49 16.315 55.878 14.873 54.251 18.16"/>
      <polygon points="59.576 15.224 62.098 10.198 59.719 8.154 61.804 6.966 63.274 8.271 64.728 5.302 66.814 4.115 64.449 8.86 66.971 11.014 64.886 12.201 63.274 10.759 61.647 14.045"/>
      <polygon points="72.124 1.187 70.669 4.157 69.2 2.852 67.115 4.039 69.494 6.084 66.971 11.109 69.043 9.93 70.669 6.644 72.282 8.086 74.367 6.899 71.845 4.745 74.21 0"/>
    </g>
    <g fill="#FFF" transform="translate(185.712 223.834)">
      <polygon points="5.153 39.865 3.698 42.834 2.229 41.529 .143 42.716 2.523 44.761 0 49.787 2.071 48.608 3.698 45.321 5.31 46.763 7.396 45.576 4.873 43.423 7.238 38.677"/>
      <polygon points="7.396 45.672 9.918 40.646 7.539 38.602 9.624 37.414 11.093 38.719 12.548 35.75 14.634 34.563 12.269 39.308 14.791 41.462 12.706 42.649 11.093 41.207 9.467 44.493"/>
      <polygon points="14.38 41.146 16.903 36.12 14.524 34.076 16.609 32.888 18.078 34.193 19.533 31.224 21.618 30.037 19.253 34.782 21.776 36.936 19.691 38.123 18.078 36.681 16.451 39.967"/>
      <polygon points="22.187 34.151 22.187 32.531 25.474 30.448 25.474 32.068"/>
      <polygon points="26.296 34.563 28.818 29.537 26.439 27.492 28.524 26.305 29.993 27.61 31.448 24.64 33.534 23.453 31.169 28.198 33.691 30.352 31.606 31.539 29.993 30.097 28.367 33.384"/>
      <polygon points="33.28 30.448 35.803 25.422 33.424 23.378 35.509 22.19 36.978 23.495 38.433 20.526 40.518 19.339 38.153 24.084 40.676 26.238 38.591 27.425 36.978 25.983 35.352 29.269"/>
      <polygon points="40.676 26.333 43.198 21.308 40.819 19.263 42.905 18.076 44.373 19.381 45.828 16.411 47.914 15.224 45.549 19.969 48.071 22.123 45.986 23.31 44.373 21.868 42.747 25.154"/>
      <polygon points="48.482 19.339 48.482 17.718 51.769 15.635 51.769 17.256"/>
      <polygon points="52.18 19.339 54.703 14.313 52.324 12.268 54.409 11.081 55.878 12.386 57.333 9.416 59.418 8.229 57.053 12.974 59.576 15.128 57.49 16.315 55.878 14.873 54.251 18.16"/>
      <polygon points="59.576 15.224 62.098 10.198 59.719 8.154 61.804 6.966 63.274 8.271 64.728 5.302 66.814 4.115 64.449 8.86 66.971 11.014 64.886 12.201 63.274 10.759 61.647 14.045"/>
      <polygon points="72.124 1.187 70.669 4.157 69.2 2.852 67.115 4.039 69.494 6.084 66.971 11.109 69.043 9.93 70.669 6.644 72.282 8.086 74.367 6.899 71.845 4.745 74.21 0"/>
    </g>
    <g fill="#FFF" transform="translate(185.712 252.225)">
      <polygon points="5.153 39.865 3.698 42.834 2.229 41.529 .143 42.716 2.523 44.761 0 49.787 2.071 48.608 3.698 45.321 5.31 46.763 7.396 45.576 4.873 43.423 7.238 38.677"/>
      <polygon points="7.396 45.672 9.918 40.646 7.539 38.602 9.624 37.414 11.093 38.719 12.548 35.75 14.634 34.563 12.269 39.308 14.791 41.462 12.706 42.649 11.093 41.207 9.467 44.493"/>
      <polygon points="14.38 41.146 16.903 36.12 14.524 34.076 16.609 32.888 18.078 34.193 19.533 31.224 21.618 30.037 19.253 34.782 21.776 36.936 19.691 38.123 18.078 36.681 16.451 39.967"/>
      <polygon points="22.187 34.151 22.187 32.531 25.474 30.448 25.474 32.068"/>
      <polygon points="26.296 34.563 28.818 29.537 26.439 27.492 28.524 26.305 29.993 27.61 31.448 24.64 33.534 23.453 31.169 28.198 33.691 30.352 31.606 31.539 29.993 30.097 28.367 33.384"/>
      <polygon points="33.28 30.448 35.803 25.422 33.424 23.378 35.509 22.19 36.978 23.495 38.433 20.526 40.518 19.339 38.153 24.084 40.676 26.238 38.591 27.425 36.978 25.983 35.352 29.269"/>
      <polygon points="40.676 26.333 43.198 21.308 40.819 19.263 42.905 18.076 44.373 19.381 45.828 16.411 47.914 15.224 45.549 19.969 48.071 22.123 45.986 23.31 44.373 21.868 42.747 25.154"/>
      <polygon points="48.482 19.339 48.482 17.718 51.769 15.635 51.769 17.256"/>
      <polygon points="52.18 19.339 54.703 14.313 52.324 12.268 54.409 11.081 55.878 12.386 57.333 9.416 59.418 8.229 57.053 12.974 59.576 15.128 57.49 16.315 55.878 14.873 54.251 18.16"/>
      <polygon points="59.576 15.224 62.098 10.198 59.719 8.154 61.804 6.966 63.274 8.271 64.728 5.302 66.814 4.115 64.449 8.86 66.971 11.014 64.886 12.201 63.274 10.759 61.647 14.045"/>
      <polygon points="72.124 1.187 70.669 4.157 69.2 2.852 67.115 4.039 69.494 6.084 66.971 11.109 69.043 9.93 70.669 6.644 72.282 8.086 74.367 6.899 71.845 4.745 74.21 0"/>
    </g>
    <g fill="#FFF" transform="translate(185.712 280.616)">
      <polygon points="5.153 39.865 3.698 42.834 2.229 41.529 .143 42.716 2.523 44.761 0 49.787 2.071 48.608 3.698 45.321 5.31 46.763 7.396 45.576 4.873 43.423 7.238 38.677"/>
      <polygon points="7.396 45.672 9.918 40.646 7.539 38.602 9.624 37.414 11.093 38.719 12.548 35.75 14.634 34.563 12.269 39.308 14.791 41.462 12.706 42.649 11.093 41.207 9.467 44.493"/>
      <polygon points="14.38 41.146 16.903 36.12 14.524 34.076 16.609 32.888 18.078 34.193 19.533 31.224 21.618 30.037 19.253 34.782 21.776 36.936 19.691 38.123 18.078 36.681 16.451 39.967"/>
      <polygon points="22.187 34.151 22.187 32.531 25.474 30.448 25.474 32.068"/>
      <polygon points="26.296 34.563 28.818 29.537 26.439 27.492 28.524 26.305 29.993 27.61 31.448 24.64 33.534 23.453 31.169 28.198 33.691 30.352 31.606 31.539 29.993 30.097 28.367 33.384"/>
      <polygon points="33.28 30.448 35.803 25.422 33.424 23.378 35.509 22.19 36.978 23.495 38.433 20.526 40.518 19.339 38.153 24.084 40.676 26.238 38.591 27.425 36.978 25.983 35.352 29.269"/>
      <polygon points="40.676 26.333 43.198 21.308 40.819 19.263 42.905 18.076 44.373 19.381 45.828 16.411 47.914 15.224 45.549 19.969 48.071 22.123 45.986 23.31 44.373 21.868 42.747 25.154"/>
      <polygon points="48.482 19.339 48.482 17.718 51.769 15.635 51.769 17.256"/>
      <polygon points="52.18 19.339 54.703 14.313 52.324 12.268 54.409 11.081 55.878 12.386 57.333 9.416 59.418 8.229 57.053 12.974 59.576 15.128 57.49 16.315 55.878 14.873 54.251 18.16"/>
      <polygon points="59.576 15.224 62.098 10.198 59.719 8.154 61.804 6.966 63.274 8.271 64.728 5.302 66.814 4.115 64.449 8.86 66.971 11.014 64.886 12.201 63.274 10.759 61.647 14.045"/>
      <polygon points="72.124 1.187 70.669 4.157 69.2 2.852 67.115 4.039 69.494 6.084 66.971 11.109 69.043 9.93 70.669 6.644 72.282 8.086 74.367 6.899 71.845 4.745 74.21 0"/>
    </g>
    <polygon fill="url(#banner-i)" points="302.809 275.043 314.762 281.849 427.022 216.084 427.022 6.852 415.53 .101 302.809 64.508"/>
    <polygon fill="#FFF" points="314.724 281.946 426.985 216.181 426.985 7.269 314.724 70.968"/>
    <polygon fill="url(#banner-e)" points="322.531 262.227 418.647 205.919 418.647 185.431 322.531 239.97"/>
    <polygon fill="url(#banner-e)" points="322.942 233.836 419.058 177.528 419.058 157.04 322.942 211.579"/>
    <polygon fill="url(#banner-e)" points="322.942 205.445 419.058 149.138 419.058 128.649 322.942 183.189"/>
    <polygon fill="url(#banner-e)" points="322.942 177.054 419.058 120.747 419.058 100.259 322.942 154.798"/>
    <polygon fill="url(#banner-j)" points="322.942 146.273 419.058 89.965 419.058 68.329 419.058 47.726 419.058 24.139 322.942 78.678 322.942 102.984 322.942 123.28"/>
    <polygon fill="#FFF" points="419.058 68.329 419.058 47.726 322.942 102.984 322.942 123.28"/>
    <polygon fill="#F66" points="419.058 47.726 419.058 24.139 322.942 78.678 322.942 102.984"/>
    <polygon fill="#000" points="322.942 146.273 357.57 125.986 357.57 59.078 322.942 78.678"/>
    <polygon fill="url(#banner-k)" points="320.066 299.205 377.119 332.116 430.672 299.205 420.896 285.072 370.775 258.259 327.645 283.635"/>
    <polygon fill="url(#banner-d)" points="377.176 332.46 430.729 299.548 420.953 285.416 377.176 312.916"/>
    <polygon fill="url(#banner-l)" points="376.936 312.39 420.713 285.072 370.591 258.259 327.461 283.635" opacity=".372"/>
    <polygon fill="#1A3D61" points="337.322 284.324 370.809 264.431 410.432 286.362 376.495 307.142"/>
    <path fill="url(#banner-m)" d="M338.03375,285.142641 L376.550404,307.427537 L410.226684,286.901191 L423.916382,232.037918 C405.196315,222.780084 388.042598,218.265273 372.455231,218.493486 C356.867865,218.721699 341.322095,225.996242 325.817922,240.317117 L338.03375,285.142641 Z" opacity=".582"/>
    <g fill="#FFF" transform="translate(335.268 112.191)">
      <polygon points="5.153 39.865 3.698 42.834 2.229 41.529 .143 42.716 2.523 44.761 0 49.787 2.071 48.608 3.698 45.321 5.31 46.763 7.396 45.576 4.873 43.423 7.238 38.677"/>
      <polygon points="7.396 45.672 9.918 40.646 7.539 38.602 9.624 37.414 11.093 38.719 12.548 35.75 14.634 34.563 12.269 39.308 14.791 41.462 12.706 42.649 11.093 41.207 9.467 44.493"/>
      <polygon points="14.38 41.146 16.903 36.12 14.524 34.076 16.609 32.888 18.078 34.193 19.533 31.224 21.618 30.037 19.253 34.782 21.776 36.936 19.691 38.123 18.078 36.681 16.451 39.967"/>
      <polygon points="22.187 34.151 22.187 32.531 25.474 30.448 25.474 32.068"/>
      <polygon points="26.296 34.563 28.818 29.537 26.439 27.492 28.524 26.305 29.993 27.61 31.448 24.64 33.534 23.453 31.169 28.198 33.691 30.352 31.606 31.539 29.993 30.097 28.367 33.384"/>
      <polygon points="33.28 30.448 35.803 25.422 33.424 23.378 35.509 22.19 36.978 23.495 38.433 20.526 40.518 19.339 38.153 24.084 40.676 26.238 38.591 27.425 36.978 25.983 35.352 29.269"/>
      <polygon points="40.676 26.333 43.198 21.308 40.819 19.263 42.905 18.076 44.373 19.381 45.828 16.411 47.914 15.224 45.549 19.969 48.071 22.123 45.986 23.31 44.373 21.868 42.747 25.154"/>
      <polygon points="48.482 19.339 48.482 17.718 51.769 15.635 51.769 17.256"/>
      <polygon points="52.18 19.339 54.703 14.313 52.324 12.268 54.409 11.081 55.878 12.386 57.333 9.416 59.418 8.229 57.053 12.974 59.576 15.128 57.49 16.315 55.878 14.873 54.251 18.16"/>
      <polygon points="59.576 15.224 62.098 10.198 59.719 8.154 61.804 6.966 63.274 8.271 64.728 5.302 66.814 4.115 64.449 8.86 66.971 11.014 64.886 12.201 63.274 10.759 61.647 14.045"/>
      <polygon points="72.124 1.187 70.669 4.157 69.2 2.852 67.115 4.039 69.494 6.084 66.971 11.109 69.043 9.93 70.669 6.644 72.282 8.086 74.367 6.899 71.845 4.745 74.21 0"/>
    </g>
    <g fill="#FFF" transform="translate(335.268 142.228)">
      <polygon points="5.153 39.865 3.698 42.834 2.229 41.529 .143 42.716 2.523 44.761 0 49.787 2.071 48.608 3.698 45.321 5.31 46.763 7.396 45.576 4.873 43.423 7.238 38.677"/>
      <polygon points="7.396 45.672 9.918 40.646 7.539 38.602 9.624 37.414 11.093 38.719 12.548 35.75 14.634 34.563 12.269 39.308 14.791 41.462 12.706 42.649 11.093 41.207 9.467 44.493"/>
      <polygon points="14.38 41.146 16.903 36.12 14.524 34.076 16.609 32.888 18.078 34.193 19.533 31.224 21.618 30.037 19.253 34.782 21.776 36.936 19.691 38.123 18.078 36.681 16.451 39.967"/>
      <polygon points="22.187 34.151 22.187 32.531 25.474 30.448 25.474 32.068"/>
      <polygon points="26.296 34.563 28.818 29.537 26.439 27.492 28.524 26.305 29.993 27.61 31.448 24.64 33.534 23.453 31.169 28.198 33.691 30.352 31.606 31.539 29.993 30.097 28.367 33.384"/>
      <polygon points="33.28 30.448 35.803 25.422 33.424 23.378 35.509 22.19 36.978 23.495 38.433 20.526 40.518 19.339 38.153 24.084 40.676 26.238 38.591 27.425 36.978 25.983 35.352 29.269"/>
      <polygon points="40.676 26.333 43.198 21.308 40.819 19.263 42.905 18.076 44.373 19.381 45.828 16.411 47.914 15.224 45.549 19.969 48.071 22.123 45.986 23.31 44.373 21.868 42.747 25.154"/>
      <polygon points="48.482 19.339 48.482 17.718 51.769 15.635 51.769 17.256"/>
      <polygon points="52.18 19.339 54.703 14.313 52.324 12.268 54.409 11.081 55.878 12.386 57.333 9.416 59.418 8.229 57.053 12.974 59.576 15.128 57.49 16.315 55.878 14.873 54.251 18.16"/>
      <polygon points="59.576 15.224 62.098 10.198 59.719 8.154 61.804 6.966 63.274 8.271 64.728 5.302 66.814 4.115 64.449 8.86 66.971 11.014 64.886 12.201 63.274 10.759 61.647 14.045"/>
      <polygon points="72.124 1.187 70.669 4.157 69.2 2.852 67.115 4.039 69.494 6.084 66.971 11.109 69.043 9.93 70.669 6.644 72.282 8.086 74.367 6.899 71.845 4.745 74.21 0"/>
    </g>
    <g fill="#FFF" transform="translate(335.268 170.618)">
      <polygon points="5.153 39.865 3.698 42.834 2.229 41.529 .143 42.716 2.523 44.761 0 49.787 2.071 48.608 3.698 45.321 5.31 46.763 7.396 45.576 4.873 43.423 7.238 38.677"/>
      <polygon points="7.396 45.672 9.918 40.646 7.539 38.602 9.624 37.414 11.093 38.719 12.548 35.75 14.634 34.563 12.269 39.308 14.791 41.462 12.706 42.649 11.093 41.207 9.467 44.493"/>
      <polygon points="14.38 41.146 16.903 36.12 14.524 34.076 16.609 32.888 18.078 34.193 19.533 31.224 21.618 30.037 19.253 34.782 21.776 36.936 19.691 38.123 18.078 36.681 16.451 39.967"/>
      <polygon points="22.187 34.151 22.187 32.531 25.474 30.448 25.474 32.068"/>
      <polygon points="26.296 34.563 28.818 29.537 26.439 27.492 28.524 26.305 29.993 27.61 31.448 24.64 33.534 23.453 31.169 28.198 33.691 30.352 31.606 31.539 29.993 30.097 28.367 33.384"/>
      <polygon points="33.28 30.448 35.803 25.422 33.424 23.378 35.509 22.19 36.978 23.495 38.433 20.526 40.518 19.339 38.153 24.084 40.676 26.238 38.591 27.425 36.978 25.983 35.352 29.269"/>
      <polygon points="40.676 26.333 43.198 21.308 40.819 19.263 42.905 18.076 44.373 19.381 45.828 16.411 47.914 15.224 45.549 19.969 48.071 22.123 45.986 23.31 44.373 21.868 42.747 25.154"/>
      <polygon points="48.482 19.339 48.482 17.718 51.769 15.635 51.769 17.256"/>
      <polygon points="52.18 19.339 54.703 14.313 52.324 12.268 54.409 11.081 55.878 12.386 57.333 9.416 59.418 8.229 57.053 12.974 59.576 15.128 57.49 16.315 55.878 14.873 54.251 18.16"/>
      <polygon points="59.576 15.224 62.098 10.198 59.719 8.154 61.804 6.966 63.274 8.271 64.728 5.302 66.814 4.115 64.449 8.86 66.971 11.014 64.886 12.201 63.274 10.759 61.647 14.045"/>
      <polygon points="72.124 1.187 70.669 4.157 69.2 2.852 67.115 4.039 69.494 6.084 66.971 11.109 69.043 9.93 70.669 6.644 72.282 8.086 74.367 6.899 71.845 4.745 74.21 0"/>
    </g>
    <g fill="#FFF" transform="translate(335.268 199.01)">
      <polygon points="5.153 39.865 3.698 42.834 2.229 41.529 .143 42.716 2.523 44.761 0 49.787 2.071 48.608 3.698 45.321 5.31 46.763 7.396 45.576 4.873 43.423 7.238 38.677"/>
      <polygon points="7.396 45.672 9.918 40.646 7.539 38.602 9.624 37.414 11.093 38.719 12.548 35.75 14.634 34.563 12.269 39.308 14.791 41.462 12.706 42.649 11.093 41.207 9.467 44.493"/>
      <polygon points="14.38 41.146 16.903 36.12 14.524 34.076 16.609 32.888 18.078 34.193 19.533 31.224 21.618 30.037 19.253 34.782 21.776 36.936 19.691 38.123 18.078 36.681 16.451 39.967"/>
      <polygon points="22.187 34.151 22.187 32.531 25.474 30.448 25.474 32.068"/>
      <polygon points="26.296 34.563 28.818 29.537 26.439 27.492 28.524 26.305 29.993 27.61 31.448 24.64 33.534 23.453 31.169 28.198 33.691 30.352 31.606 31.539 29.993 30.097 28.367 33.384"/>
      <polygon points="33.28 30.448 35.803 25.422 33.424 23.378 35.509 22.19 36.978 23.495 38.433 20.526 40.518 19.339 38.153 24.084 40.676 26.238 38.591 27.425 36.978 25.983 35.352 29.269"/>
      <polygon points="40.676 26.333 43.198 21.308 40.819 19.263 42.905 18.076 44.373 19.381 45.828 16.411 47.914 15.224 45.549 19.969 48.071 22.123 45.986 23.31 44.373 21.868 42.747 25.154"/>
      <polygon points="48.482 19.339 48.482 17.718 51.769 15.635 51.769 17.256"/>
      <polygon points="52.18 19.339 54.703 14.313 52.324 12.268 54.409 11.081 55.878 12.386 57.333 9.416 59.418 8.229 57.053 12.974 59.576 15.128 57.49 16.315 55.878 14.873 54.251 18.16"/>
      <polygon points="59.576 15.224 62.098 10.198 59.719 8.154 61.804 6.966 63.274 8.271 64.728 5.302 66.814 4.115 64.449 8.86 66.971 11.014 64.886 12.201 63.274 10.759 61.647 14.045"/>
      <polygon points="72.124 1.187 70.669 4.157 69.2 2.852 67.115 4.039 69.494 6.084 66.971 11.109 69.043 9.93 70.669 6.644 72.282 8.086 74.367 6.899 71.845 4.745 74.21 0"/>
    </g>
    <polygon fill="url(#banner-i)" points="0 445.113 11.952 451.919 123.507 385.913 123.507 176.611 112.134 169.621 0 234.579"/>
    <polygon fill="#FFF" points="11.915 452.016 123.033 386.379 123.033 176.839 11.915 241.039"/>
    <polygon fill="url(#banner-e)" points="20.133 432.297 116.249 375.99 116.249 355.501 20.133 410.041"/>
    <polygon fill="url(#banner-e)" points="20.133 403.906 116.249 347.599 116.249 327.111 20.133 381.65"/>
    <polygon fill="url(#banner-e)" points="20.133 375.516 116.249 319.208 116.249 298.72 20.133 353.259"/>
    <polygon fill="url(#banner-e)" points="20.133 347.125 116.249 290.817 116.249 270.329 20.133 324.869"/>
    <g transform="translate(17.256 299.954)">
      <polygon fill="#2E5A86" points="0 175.081 57.054 207.993 110.607 175.081 100.83 160.949 50.709 134.136 7.579 159.512"/>
      <polygon fill="url(#banner-d)" points="57.111 207.925 110.664 175.013 100.887 160.881 57.111 188.382"/>
      <polygon fill="url(#banner-d)" points="56.87 188.267 100.647 160.949 50.525 134.136 7.396 159.512" opacity=".372"/>
      <polygon fill="url(#banner-n)" points="17.256 159.789 50.744 139.896 90.366 161.827 56.429 182.607"/>
      <path fill="url(#banner-m)" d="M17.9679728 160.470266L56.4846268 182.755162 90.1609074 162.228817 103.850605 107.365543C85.1305382 98.1077092 67.9768215 93.5928987 52.3894545 93.8211114 36.8020876 94.0493241 21.2563177 101.323868 5.7521449 115.644742L17.9679728 160.470266zM170.81068 66.6573904L209.327334 88.9422862 243.003615 68.4159407 256.693312 13.552667C237.973246 4.29483323 220.819529-.219977283 205.232162.00823541775 189.644795.236448118 174.099025 7.51099163 158.594852 21.8318659L170.81068 66.6573904z" opacity=".582"/>
    </g>
    <g fill="#FFF" transform="translate(32.459 282.262)">
      <polygon points="5.153 39.865 3.698 42.834 2.229 41.529 .143 42.716 2.523 44.761 0 49.787 2.071 48.608 3.698 45.321 5.31 46.763 7.396 45.576 4.873 43.423 7.238 38.677"/>
      <polygon points="7.396 45.672 9.918 40.646 7.539 38.602 9.624 37.414 11.093 38.719 12.548 35.75 14.634 34.563 12.269 39.308 14.791 41.462 12.706 42.649 11.093 41.207 9.467 44.493"/>
      <polygon points="14.38 41.146 16.903 36.12 14.524 34.076 16.609 32.888 18.078 34.193 19.533 31.224 21.618 30.037 19.253 34.782 21.776 36.936 19.691 38.123 18.078 36.681 16.451 39.967"/>
      <polygon points="22.187 34.151 22.187 32.531 25.474 30.448 25.474 32.068"/>
      <polygon points="26.296 34.563 28.818 29.537 26.439 27.492 28.524 26.305 29.993 27.61 31.448 24.64 33.534 23.453 31.169 28.198 33.691 30.352 31.606 31.539 29.993 30.097 28.367 33.384"/>
      <polygon points="33.28 30.448 35.803 25.422 33.424 23.378 35.509 22.19 36.978 23.495 38.433 20.526 40.518 19.339 38.153 24.084 40.676 26.238 38.591 27.425 36.978 25.983 35.352 29.269"/>
      <polygon points="40.676 26.333 43.198 21.308 40.819 19.263 42.905 18.076 44.373 19.381 45.828 16.411 47.914 15.224 45.549 19.969 48.071 22.123 45.986 23.31 44.373 21.868 42.747 25.154"/>
      <polygon points="48.482 19.339 48.482 17.718 51.769 15.635 51.769 17.256"/>
      <polygon points="52.18 19.339 54.703 14.313 52.324 12.268 54.409 11.081 55.878 12.386 57.333 9.416 59.418 8.229 57.053 12.974 59.576 15.128 57.49 16.315 55.878 14.873 54.251 18.16"/>
      <polygon points="59.576 15.224 62.098 10.198 59.719 8.154 61.804 6.966 63.274 8.271 64.728 5.302 66.814 4.115 64.449 8.86 66.971 11.014 64.886 12.201 63.274 10.759 61.647 14.045"/>
      <polygon points="72.124 1.187 70.669 4.157 69.2 2.852 67.115 4.039 69.494 6.084 66.971 11.109 69.043 9.93 70.669 6.644 72.282 8.086 74.367 6.899 71.845 4.745 74.21 0"/>
    </g>
    <g fill="#FFF" transform="translate(32.459 312.298)">
      <polygon points="5.153 39.865 3.698 42.834 2.229 41.529 .143 42.716 2.523 44.761 0 49.787 2.071 48.608 3.698 45.321 5.31 46.763 7.396 45.576 4.873 43.423 7.238 38.677"/>
      <polygon points="7.396 45.672 9.918 40.646 7.539 38.602 9.624 37.414 11.093 38.719 12.548 35.75 14.634 34.563 12.269 39.308 14.791 41.462 12.706 42.649 11.093 41.207 9.467 44.493"/>
      <polygon points="14.38 41.146 16.903 36.12 14.524 34.076 16.609 32.888 18.078 34.193 19.533 31.224 21.618 30.037 19.253 34.782 21.776 36.936 19.691 38.123 18.078 36.681 16.451 39.967"/>
      <polygon points="22.187 34.151 22.187 32.531 25.474 30.448 25.474 32.068"/>
      <polygon points="26.296 34.563 28.818 29.537 26.439 27.492 28.524 26.305 29.993 27.61 31.448 24.64 33.534 23.453 31.169 28.198 33.691 30.352 31.606 31.539 29.993 30.097 28.367 33.384"/>
      <polygon points="33.28 30.448 35.803 25.422 33.424 23.378 35.509 22.19 36.978 23.495 38.433 20.526 40.518 19.339 38.153 24.084 40.676 26.238 38.591 27.425 36.978 25.983 35.352 29.269"/>
      <polygon points="40.676 26.333 43.198 21.308 40.819 19.263 42.905 18.076 44.373 19.381 45.828 16.411 47.914 15.224 45.549 19.969 48.071 22.123 45.986 23.31 44.373 21.868 42.747 25.154"/>
      <polygon points="48.482 19.339 48.482 17.718 51.769 15.635 51.769 17.256"/>
      <polygon points="52.18 19.339 54.703 14.313 52.324 12.268 54.409 11.081 55.878 12.386 57.333 9.416 59.418 8.229 57.053 12.974 59.576 15.128 57.49 16.315 55.878 14.873 54.251 18.16"/>
      <polygon points="59.576 15.224 62.098 10.198 59.719 8.154 61.804 6.966 63.274 8.271 64.728 5.302 66.814 4.115 64.449 8.86 66.971 11.014 64.886 12.201 63.274 10.759 61.647 14.045"/>
      <polygon points="72.124 1.187 70.669 4.157 69.2 2.852 67.115 4.039 69.494 6.084 66.971 11.109 69.043 9.93 70.669 6.644 72.282 8.086 74.367 6.899 71.845 4.745 74.21 0"/>
    </g>
    <g fill="#FFF" transform="translate(32.459 340.689)">
      <polygon points="5.153 39.865 3.698 42.834 2.229 41.529 .143 42.716 2.523 44.761 0 49.787 2.071 48.608 3.698 45.321 5.31 46.763 7.396 45.576 4.873 43.423 7.238 38.677"/>
      <polygon points="7.396 45.672 9.918 40.646 7.539 38.602 9.624 37.414 11.093 38.719 12.548 35.75 14.634 34.563 12.269 39.308 14.791 41.462 12.706 42.649 11.093 41.207 9.467 44.493"/>
      <polygon points="14.38 41.146 16.903 36.12 14.524 34.076 16.609 32.888 18.078 34.193 19.533 31.224 21.618 30.037 19.253 34.782 21.776 36.936 19.691 38.123 18.078 36.681 16.451 39.967"/>
      <polygon points="22.187 34.151 22.187 32.531 25.474 30.448 25.474 32.068"/>
      <polygon points="26.296 34.563 28.818 29.537 26.439 27.492 28.524 26.305 29.993 27.61 31.448 24.64 33.534 23.453 31.169 28.198 33.691 30.352 31.606 31.539 29.993 30.097 28.367 33.384"/>
      <polygon points="33.28 30.448 35.803 25.422 33.424 23.378 35.509 22.19 36.978 23.495 38.433 20.526 40.518 19.339 38.153 24.084 40.676 26.238 38.591 27.425 36.978 25.983 35.352 29.269"/>
      <polygon points="40.676 26.333 43.198 21.308 40.819 19.263 42.905 18.076 44.373 19.381 45.828 16.411 47.914 15.224 45.549 19.969 48.071 22.123 45.986 23.31 44.373 21.868 42.747 25.154"/>
      <polygon points="48.482 19.339 48.482 17.718 51.769 15.635 51.769 17.256"/>
      <polygon points="52.18 19.339 54.703 14.313 52.324 12.268 54.409 11.081 55.878 12.386 57.333 9.416 59.418 8.229 57.053 12.974 59.576 15.128 57.49 16.315 55.878 14.873 54.251 18.16"/>
      <polygon points="59.576 15.224 62.098 10.198 59.719 8.154 61.804 6.966 63.274 8.271 64.728 5.302 66.814 4.115 64.449 8.86 66.971 11.014 64.886 12.201 63.274 10.759 61.647 14.045"/>
      <polygon points="72.124 1.187 70.669 4.157 69.2 2.852 67.115 4.039 69.494 6.084 66.971 11.109 69.043 9.93 70.669 6.644 72.282 8.086 74.367 6.899 71.845 4.745 74.21 0"/>
    </g>
    <g fill="#FFF" transform="translate(32.459 369.08)">
      <polygon points="5.153 39.865 3.698 42.834 2.229 41.529 .143 42.716 2.523 44.761 0 49.787 2.071 48.608 3.698 45.321 5.31 46.763 7.396 45.576 4.873 43.423 7.238 38.677"/>
      <polygon points="7.396 45.672 9.918 40.646 7.539 38.602 9.624 37.414 11.093 38.719 12.548 35.75 14.634 34.563 12.269 39.308 14.791 41.462 12.706 42.649 11.093 41.207 9.467 44.493"/>
      <polygon points="14.38 41.146 16.903 36.12 14.524 34.076 16.609 32.888 18.078 34.193 19.533 31.224 21.618 30.037 19.253 34.782 21.776 36.936 19.691 38.123 18.078 36.681 16.451 39.967"/>
      <polygon points="22.187 34.151 22.187 32.531 25.474 30.448 25.474 32.068"/>
      <polygon points="26.296 34.563 28.818 29.537 26.439 27.492 28.524 26.305 29.993 27.61 31.448 24.64 33.534 23.453 31.169 28.198 33.691 30.352 31.606 31.539 29.993 30.097 28.367 33.384"/>
      <polygon points="33.28 30.448 35.803 25.422 33.424 23.378 35.509 22.19 36.978 23.495 38.433 20.526 40.518 19.339 38.153 24.084 40.676 26.238 38.591 27.425 36.978 25.983 35.352 29.269"/>
      <polygon points="40.676 26.333 43.198 21.308 40.819 19.263 42.905 18.076 44.373 19.381 45.828 16.411 47.914 15.224 45.549 19.969 48.071 22.123 45.986 23.31 44.373 21.868 42.747 25.154"/>
      <polygon points="48.482 19.339 48.482 17.718 51.769 15.635 51.769 17.256"/>
      <polygon points="52.18 19.339 54.703 14.313 52.324 12.268 54.409 11.081 55.878 12.386 57.333 9.416 59.418 8.229 57.053 12.974 59.576 15.128 57.49 16.315 55.878 14.873 54.251 18.16"/>
      <polygon points="59.576 15.224 62.098 10.198 59.719 8.154 61.804 6.966 63.274 8.271 64.728 5.302 66.814 4.115 64.449 8.86 66.971 11.014 64.886 12.201 63.274 10.759 61.647 14.045"/>
      <polygon points="72.124 1.187 70.669 4.157 69.2 2.852 67.115 4.039 69.494 6.084 66.971 11.109 69.043 9.93 70.669 6.644 72.282 8.086 74.367 6.899 71.845 4.745 74.21 0"/>
    </g>
    <polygon fill="url(#banner-j)" points="19.311 317.646 115.427 261.338 115.427 239.702 115.427 219.099 115.427 195.512 19.311 250.051 19.311 274.357 19.311 294.653"/>
    <polygon fill="#FFF" points="115.427 239.979 115.427 219.376 19.311 274.634 19.311 294.93"/>
    <path fill="#6682FF" d="M74.1968395,258.389505 C72.1549224,264.258255 67.6326339,268.466446 64.095937,267.788855 C60.5592401,267.111144 59.3475161,261.804244 61.3894332,255.935495 C63.4312301,250.066745 67.9536387,245.858434 71.4903356,246.536145 C75.0270325,247.213856 76.2387565,252.520756 74.1968395,258.389505 Z"/>
    <path fill="#FFF" d="M73.4853169,258.247927 C71.6702795,263.439513 67.6504675,267.162143 64.5067369,266.562736 C61.3630064,265.963223 60.2859184,261.268657 62.1009557,256.077071 C63.9158864,250.885485 67.9358051,247.162748 71.0795357,247.762262 C74.2232663,248.361775 75.3003543,253.05634 73.4853169,258.247927 Z"/>
    <path fill="#6682FF" d="M69.9828102,257.722166 C69.4156111,259.415075 68.1594198,260.628976 67.177004,260.433517 C66.1945882,260.238023 65.8579982,258.707187 66.4251974,257.014278 C66.9923632,255.32137 68.2485878,254.107434 69.2310036,254.302927 C70.2134194,254.498421 70.5500094,256.029257 69.9828102,257.722166 Z"/>
    <polygon fill="#FFB65F" points="115.427 219.099 115.427 195.512 19.311 250.051 19.311 274.357"/>
    <path fill="url(#banner-f)" d="M300.522139,468.975647 C291.74718,467.443098 285.966417,466.472484 283.17985,466.063804 C280.393283,465.655125 279,467.209704 279,470.727542 C285.416791,475.412032 289.980033,478.381665 292.689724,479.636439 C296.754262,481.5186 301.519547,481.389291 303.759774,479.636439 C305.253258,478.46787 306,475.498238 306,470.727542 L300.522139,468.975647 Z"/>
    <path fill="url(#banner-o)" d="M296.588667,351.49846 C294.862889,351.869645 294.28763,356.107126 294.862889,364.210905 C295.438149,372.314684 295.150519,389.335518 294,415.273406 C294,421.533596 294,426.414792 294,429.916996 C294,433.4192 294,444.218381 294,462.314539 L295.294334,480.217398 C299.148696,481.535041 302.307643,481.188828 304.771172,479.17876 C306.083561,476.565056 307.163106,467.786424 308.009808,452.842866 L317.102829,377.231334 C321.627083,374.322285 325.280042,371.967238 328.061708,370.166193 C332.234207,367.464625 335.417745,362.260338 335.984599,358.205674 C336.551454,354.15101 338,344.938276 338,341.691772 C338,339.527437 337.632986,337.296846 336.898957,335 L296.588667,351.49846 Z"/>
    <path fill="url(#banner-p)" d="M301,259.321617 L301.856805,245.296149 L304.861683,235.696464 L308.309978,231.141733 L316.38151,229 L323.03951,229.833975 L328.662122,234.461941 L331,239.270751 L331,243.317325 L331,249.407737 L326.192194,252.804917 L323.03951,255.544481 L316.38151,258.621073 C314.770923,259.883093 313.392665,261.189653 312.246734,262.540753 C310.527839,264.567403 306.57108,264.902913 304.861683,264.998445 C303.722085,265.062132 302.434857,263.169857 301,259.321617 Z" transform="rotate(-7 316 247)"/>
    <path fill="url(#banner-p)" d="M236.110971 295.403025L226.869863 286.60013 219.8703 285 219 286.60013 225.509822 290.060671 223.10391 298.243183 232.141063 302.964181 273.016323 330 295 310.269861 286.437802 298.335986 270.675023 314.983638C254.435851 306.676249 244.792372 301.592916 241.744585 299.733641 238.696798 297.874366 236.818927 296.430827 236.110971 295.403025zM314.998957 268L314 252.755474C314.910118 250.699779 316.065096 249.503949 317.464935 249.167983 318.864774 248.832017 320.247903 249 321.614322 249.671932L328 261.947865 314.998957 268zM268 260.743121L268 259 278.820372 260.743121 284.506392 265.888556 324 278.655894 324 287 283.292732 270.30823 278.120606 270.30823 273.76125 272.014929C272.9476 271.615146 272.62647 271.253744 272.797859 270.930722 272.969249 270.6077 274.149987 269.348984 276.340071 267.154573L273.76125 262.587002 268 260.743121z"/>
    <path fill="url(#banner-q)" d="M274,306.046439 L288.106582,321.178738 L295.202541,313.612589 C295.202541,323.875444 295.202541,330.773775 295.202541,334.30758 C295.202541,337.841385 294.467896,342.212725 292.998606,347.4216 C293.730639,349.6837 294.11378,351.372719 294.148031,352.488658 C294.199407,354.162566 295.693659,357.610641 296.528734,357.725722 C297.085451,357.802443 298.13793,357.840803 299.68617,357.840803 C304.86497,358.571394 311.631195,356.787346 319.984846,352.488658 C328.338497,348.18997 333.561415,343.129596 335.653601,337.307536 L335.653601,332.023219 L334.153253,326.580578 L334.153253,313.612589 L335.653601,304.13801 L335.653601,293.592391 C339.19476,291.073393 340.986528,289.211171 341.028906,288.005725 C341.092472,286.197556 344.66614,282.877639 342.033782,272.470641 C341.363864,269.122245 338.737021,265.632031 334.153253,262 L326.181292,262 C320.894598,264.085991 317.339216,265.393732 315.515149,265.923221 C313.691081,266.452711 311.352698,267.972014 308.5,270.481132 L303.470566,274.738263 L296.528734,280.575144 L291.688957,285.767745 L285.212991,293.592391 L278.649077,300.552186 L274,306.046439 Z"/>
    <path fill="url(#banner-r)" d="M508,278.076338 L512.231973,261.189276 C514.88917,258.984162 517.297686,258.444848 519.457522,259.571334 C521.617357,260.69782 522.401107,262.338598 521.808772,264.493669 L521.198858,282.950603 C520.247523,283.08451 518.443478,282.946168 515.786725,282.535577 C513.129972,282.124987 510.534397,280.638574 508,278.076338 Z"/>
    <circle cx="517" cy="252" r="15" fill="url(#banner-r)"/>
    <path fill="#0D2D51" d="M489.754188,471.281757 C494.391309,467.470469 497.687989,465.404296 499.644228,465.083239 C502.578587,464.601652 503.685681,466.285447 502.578587,468.182498 C501.471493,470.079549 498.477688,478.291121 496.377094,479.842508 C494.276499,481.393896 493.14458,483.137994 489.754188,482.991344 C486.363795,482.844693 486.789009,475.000149 487.472198,474 C487.927657,473.333234 488.688321,472.427153 489.754188,471.281757 Z"/>
    <path fill="url(#banner-s)" d="M493.259916,358 C490.104957,370.422931 488.197941,380.275686 487.538868,387.558266 C486.550259,398.482136 484.722943,426.08467 484.222444,432.92848 C483.721945,439.77229 484.222444,449.111343 484.222444,457.035426 C484.222444,462.318148 484.75986,470.265523 485.834691,480.877551 C488.501892,482.37415 490.556516,482.37415 491.998562,480.877551 C493.259916,469.570108 503.325028,420.707989 504.743926,410.780563 C505.689857,404.162279 509.108549,393.513547 515,378.834369 L493.259916,358 Z"/>
    <path fill="#0D2D51" d="M532.595896,487.107343 C536.239746,485.699081 538.797503,484.895919 540.269168,484.697857 C542.476665,484.400765 542.147837,484.280106 543.895464,484.018736 C545.643091,483.757366 546.89717,486.303585 546.996982,487.107343 C547.063523,487.643181 546.029684,488.982181 543.895464,491.124342 C541.249955,493.662445 538.915819,495.418547 536.893057,496.392646 C533.858914,497.853795 531.647311,498.253926 530.491522,497.853795 C529.335734,497.453663 528.071183,495.402861 528.001039,493.263602 C527.954277,491.837429 529.485896,489.785342 532.595896,487.107343 Z"/>
    <path fill="url(#banner-s)" d="M493.987965,348 C492.220885,357.772809 491.631858,365.355694 492.220885,370.748657 C492.809912,376.141619 493.879681,378.887652 495.430193,378.986754 L512.703501,387.541311 C513.789591,404.282554 514.721758,416.268783 515.5,423.5 C516.278242,430.731217 520.357983,455.325157 527.739223,497.281821 C530.550134,499.572726 533.551203,499.572726 536.74243,497.281821 C537.094257,486.99469 536.74243,443.521385 536.74243,427.384269 C536.74243,416.626192 537.084444,401.378896 537.768474,381.642382 C538.589491,375.276161 539,371.313157 539,369.753369 C539,368.193581 538.589491,365.160922 537.768474,360.655393 L493.987965,348 Z"/>
    <path fill="url(#banner-t)" d="M494.278549,267 C489.566582,267 488,272.68985 488,275.975258 C488,278.16553 488.394423,287.543369 489.183269,304.108773 L526.946778,335 L529,328.733879 L498.908298,301 C498.135116,289.356304 497.675663,281.273342 497.529941,276.751113 C497.311357,269.967769 498.990515,267 494.278549,267 Z"/>
    <path fill="url(#banner-t)" d="M491.965551,267.282873 C490.655184,270.428738 490,272.86602 490,274.594719 C490,276.323417 490,281.971255 490,291.538234 L491.965551,302.05803 L493.931101,321.350474 L493.931101,335.891127 L491.965551,344.95331 L493.931101,349.943543 C495.057131,351.138587 498.831045,353.446357 505.252844,356.866852 C511.674643,360.287347 519.968395,363.33173 530.134099,366 L535.659933,366 L537.713365,362.67034 L537.713365,353.646477 L537.713365,337.497766 L537.713365,321.350474 L539.448137,308.071573 C540.482712,303.885606 541,300.864878 541,299.00939 C541,297.153901 540.482712,293.448413 539.448137,287.892924 C533.238778,282.597934 524.743133,277.577946 513.961202,272.83296 C503.17927,268.087975 495.847386,266.237946 491.965551,267.282873 Z"/>
    <polygon fill="url(#banner-r)" points="568 345.13 572.598 340.405 576.64 339 576.64 340.405 574.109 342.028 580.858 340.405 586 340.837 585.183 342.697 581.667 343.94 580.231 351.702 575.877 353 568 350.438"/>
    <path fill="#AD6A1A" d="M531.343576,300 C529.43464,305.050311 528.798328,311.785277 529.43464,320.2049 C530.070952,328.624522 530.707264,336.194301 531.343576,342.914237 L531.343576,354.158003 C531.722673,358.354159 531.364747,360.561186 530.2698,360.779083 C528.627379,361.105928 507.517048,356.712901 504,355.843775 C511.813327,359.851481 521.274829,363.235527 525.507367,364.469176 C528.329058,365.291609 529.916536,365.801884 530.2698,366 L536.294433,366 L538,362.777851 L538,333 L538,301.431487 L531.343576,300 Z"/>
    <path fill="url(#banner-t)" d="M530,301.012915 C530,295.550361 530.315554,286.238928 534.501995,285.127058 C538.688435,284.015189 541.82135,290.421495 543.467011,295.717205 C544.564118,299.247679 544.564118,309.790701 543.467011,327.346273 L571.500788,346.468316 C572.440765,347.363684 572.053315,349.207579 570.338437,352 C566.544208,350.791666 554.859255,344.099821 535.283578,331.924464 C531.761193,314.958468 530,304.654618 530,301.012915 Z"/>
    <path fill="url(#banner-r)" d="M533,251.432969 C531.943793,258.970983 531.075532,264.243386 530.395216,267.250179 C529.374742,271.760368 528.749425,272.475963 525.915008,271.760368 C523.080591,271.044774 518.71809,269.125656 516.362381,267.250179 C514.006673,265.374702 510.062976,264.036976 507.503383,261.716485 C504.943789,259.395993 505.560698,253.064482 510.062976,249.764125 C514.565254,246.463769 518.297709,243.148165 524.346462,244.197633 C528.378965,244.897278 531.263477,247.309057 533,251.432969 Z" transform="rotate(-12 519.5 258)"/>
    <path fill="#B9A17C" d="M526.571646,257.833008 C525.977695,260.846379 525.341813,263.862141 524.664,266.880293 C523.647282,271.407522 528.665694,273.583544 525.841709,272.865246 C523.017724,272.146948 518.67128,270.22058 516.324242,268.338017 C513.977203,266.455454 510.048022,265.112675 507.497849,262.783417 C504.947677,260.454158 505.562315,254.098727 510.048022,250.785902 C514.533728,247.473077 518.252446,244.144946 524.278937,245.198379 C528.296597,245.900668 529.060834,250.112211 526.571646,257.833008 Z" transform="rotate(-12 517 259)"/>
    <g transform="translate(551 126)">
      <polygon fill="#1E507D" points="4.536 4.467 0 8.829 0 128.449 170.386 225.903 177.419 221.206 177.628 101.146 172.447 92.803 12.339 .411"/>
      <polygon fill="#FFF" points=".411 8.847 .411 127.305 170.628 225.618 170.846 100.204 4.231 4.254"/>
      <polygon fill="url(#banner-u)" points="6.577 12.738 6.577 123.113 164.426 214.283 164.628 103.756"/>
      <polygon fill="#FFF" fill-opacity=".3" stroke="#FFF" stroke-width="2" points="74.406 133.545 149.68 176.501 149.68 196.627 74.406 153.696"/>
      <polygon fill="#FFF" fill-opacity=".3" stroke="#FFF" points="19.321 52.4 19.321 61.64 24.781 67.11 27.305 76.336 24.781 82.678 21.784 89.717 23.313 96.412 36.607 99.898 42.642 105.892 48.491 105.892 54.905 113.492 59.238 113.492 64.759 118.765 66.013 125.462 68.777 128.477 68.777 61.641 61.456 63.96 51.991 56.28 45.905 56.28 36.607 48.898 33.562 48.898 29.661 51.078 26.781 49.504 25.501 51.078 22.597 51.399"/>
      <polygon fill="#1A4F85" points="170.941 114.675 177.908 110.843 177.908 100.956 172.725 92.559 165.159 88.345 157.972 92.394 157.857 99.907 165.159 104.043 165.159 111.459"/>
      <polygon fill="url(#banner-d)" points="170.826 114.675 177.793 110.843 177.793 100.956 172.61 92.559 165.044 88.345 157.857 92.394 160.919 94.155 165.59 96.842 170.826 104.005"/>
      <polygon fill="url(#banner-d)" points="0 20.426 0 8.228 4.531 3.744 11.94 0 22.573 6.046 14.888 9.879 14.888 17.422 6.043 11.995 6.043 24.123"/>
      <polygon fill="#1A4F85" points="0 20.38 0 8.182 4.531 3.698 14.888 9.834 14.888 17.376 6.043 11.949 6.043 24.077"/>
    </g>
    <polygon fill="#4A4949" points="698 390 698 468.776 757 501 757 423.976"/>
    <path fill="url(#banner-v)" d="M757,424.069527 C757,424.069527 773.333333,414.713018 806,396 L806,472.633142 L757,501 C757,449.713018 757,424.069527 757,424.069527 Z"/>
    <polygon fill="#7B7B7B" points="698 389.536 746.995 361 806 395.353 757.084 424"/>
    <ellipse cx="751" cy="389.5" fill="url(#banner-v)" rx="24" ry="15.5"/>
    <ellipse cx="751.5" cy="383.5" fill="url(#banner-w)" rx="16.5" ry="10.5"/>
    <g transform="translate(698 271)">
      <ellipse cx="54.706" cy="54" fill="url(#banner-x)" rx="54.294" ry="54"/>
      <path fill="#4E99C9" d="M84.0093766 8.55291442C83.0777305 7.34670709 82.2018852 9.08098252 81.3818405 13.7557407L77.6134005 18.4702941C78.1627944 20.2545847 78.5711731 21.5889473 78.8385364 22.4733819 79.1058997 23.3578165 78.972218 26.6040084 78.4374914 32.2119574 77.8880975 33.048044 77.6134005 33.8218201 77.6134005 34.5332857 77.6134005 35.2447512 78.6793965 36.4767912 80.8113885 38.2294055L90.2773888 39.413397 95.4612047 39.413397 96.8019825 43.0790248 95.4612047 44.452548 91.3540342 46.9308047 85.3349654 53.6018299 80.8113885 56.0287644 75.2716981 62.5319049 78.4374914 71.4428427C78.6487 71.4428427 79.6301497 71.4428427 81.3818405 71.4428427 84.0093766 71.4428427 83.0067525 71.4428427 86.0368403 71.4428427 88.0568988 71.4428427 89.8292968 72.8642086 91.3540342 75.7069404 91.3540342 78.1883867 91.3540342 79.819391 91.3540342 80.5999535 91.3540342 81.3805159 91.7146653 82.508446 92.4359273 83.9837438L95.4612047 86.9865315 96.8019825 88.0047272C106.205422 76.1980029 110.142598 63.2006723 108.61351 49.0127356 105.979914 22.4733819 93.7104904 15.6182176 84.0093766 8.55291442zM11.700384 20.8636364L16.0831411 24.8531706 18.3780185 26.2475602 21.1696905 35.0668235 19.9221097 38.8371281 22.3680395 42.0999773 26.39946 52.8911946C26.3166609 51.9348934 25.6240577 52.5836796 24.3216504 54.8375531 24.5580118 57.0199639 24.5580118 58.9698511 24.3216504 60.6872149L27.8803551 61.634433C28.4821287 64.5240088 28.8964674 66.1796861 29.1233713 66.6014649 29.3502751 67.0232438 29.3502751 68.0830017 29.1233713 69.7807387L25.7489616 71.5167517 24.3216504 74.0674842 22.3680395 76.4869808 24.3216504 81.3343413 23.2010437 92.4753525 24.8136556 94.5045367 23.8631479 97.8012953C10.4220782 86.9056771 2.65606099 75.1286934.565096337 62.4703442-1.52586831 49.811995 2.18589423 35.9430924 11.700384 20.8636364zM43.73746 39.7865237L40.2151719 36.2578563 38.6641509 32.55936 38.6641509 29.4618694 38.6641509 27.4946845 42.5990959 24.4481425 47.9949414 21.6818182 53.5340311 26.2888992 54.685676 38.4807281C57.1774284 41.9408349 58.5725568 43.9432436 58.8710611 44.4879541 59.1695655 45.0326646 59.1695655 46.5463434 58.8710611 49.0289905L54.685676 49.0289905 50.604641 44.4879541 46.8696214 43.8980593 45.1080777 43.4063677 45.1080777 42.2518052 44.2595549 41.2450561 43.73746 39.7865237z"/>
    </g>
    <path fill="url(#banner-y)" d="M307.382062,225.576627 C317.043239,223.731978 319.656789,226.851421 323.643105,227.438538 C326.300649,227.829949 329.646315,230.239628 333.680103,234.667575 C334.555007,245.997937 333.635293,253.334656 330.92096,256.677734 C326.849461,261.692351 322.198109,259.5664 318.413874,259.47659 C314.629639,259.38678 310.005779,252.025038 310.005779,245.321457 C302.827748,239.522678 298.228597,240.386049 298.047406,237.783608 C297.866215,235.181167 297.720884,227.421276 307.382062,225.576627 Z"/>
    <path fill="url(#banner-z)" d="M535,240.310498 C535,244.292492 531.953401,247.872945 525.860204,251.051856 C525.298479,255.537815 524.49595,259.207863 523.452617,262.062001 C522.409284,264.916139 520.310455,267.173265 517.156132,268.83338 C514.817715,269.15622 512.789445,269.009913 511.071322,268.394462 C509.353199,267.77901 507.748647,266.623996 506.257664,264.929421 C503.419221,259.933884 502,254.943108 502,249.957091 C502,242.478067 506.243158,238.035877 510.582664,236.017938 C513.475668,234.672646 519.21577,234 527.802969,234 C532.60099,234.225005 535,236.328504 535,240.310498 Z" transform="rotate(-12 518.5 251.5)"/>
    <polygon stroke="#FFF" stroke-width="2" points="565 151 565 245.229 620 277 620 182.499"/>
    <path fill="#FFF" d="M588.463514,246.13083 C587.35912,249.148052 584.913191,251.311553 583.000329,250.963193 C581.087467,250.61477 580.432093,247.886404 581.536486,244.869182 C582.640815,241.851959 585.086809,239.688396 586.999671,240.036819 C588.912533,240.385241 589.567907,243.113607 588.463514,246.13083 Z" opacity=".428" transform="matrix(-1 0 0 1 1170 0)"/>
    <path fill="#FFF" d="M580.798818,186.672044 C580.38467,187.494923 579.467446,188.084969 578.750123,187.989962 C578.0328,187.894937 577.787035,187.150837 578.201182,186.327959 C578.615306,185.50508 579.532554,184.915017 580.249877,185.010041 C580.9672,185.105066 581.212965,185.849166 580.798818,186.672044 Z" transform="matrix(-1 0 0 1 1159 0)"/>
    <path fill="#FFF" d="M612.798818,194.672044 C612.38467,195.494923 611.467446,196.084969 610.750123,195.989962 C610.0328,195.894937 609.787035,195.150837 610.201182,194.327959 C610.615306,193.50508 611.532554,192.915017 612.249877,193.010041 C612.9672,193.105066 613.212965,193.849166 612.798818,194.672044 Z" transform="matrix(-1 0 0 1 1223 0)"/>
    <path fill="#FFF" d="M586.798818,213.672044 C586.38467,214.494923 585.467446,215.084969 584.750123,214.989962 C584.0328,214.894937 583.787035,214.150837 584.201182,213.327959 C584.615306,212.50508 585.532554,211.915017 586.249877,212.010041 C586.9672,212.105066 587.212965,212.849166 586.798818,213.672044 Z" transform="matrix(-1 0 0 1 1171 0)"/>
    <path fill="#FFF" d="M616.798818,220.672044 C616.38467,221.494923 615.467446,222.084969 614.750123,221.989962 C614.0328,221.894937 613.787035,221.150837 614.201182,220.327959 C614.615306,219.50508 615.532554,218.915017 616.249877,219.010041 C616.9672,219.105066 617.212965,219.849166 616.798818,220.672044 Z" transform="matrix(-1 0 0 1 1231 0)"/>
    <path fill="#FFF" d="M606.798818,228.672044 C606.38467,229.494923 605.467446,230.084969 604.750123,229.989962 C604.0328,229.894937 603.787035,229.150837 604.201182,228.327959 C604.615306,227.50508 605.532554,226.915017 606.249877,227.010041 C606.9672,227.105066 607.212965,227.849166 606.798818,228.672044 Z" transform="matrix(-1 0 0 1 1211 0)"/>
    <path fill="#FFF" d="M580.798818,186.672044 C580.38467,187.494923 579.467446,188.084969 578.750123,187.989962 C578.0328,187.894937 577.787035,187.150837 578.201182,186.327959 C578.615306,185.50508 579.532554,184.915017 580.249877,185.010041 C580.9672,185.105066 581.212965,185.849166 580.798818,186.672044 Z" transform="matrix(-1 0 0 1 1159 0)"/>
    <path fill="#FFF" d="M600.463514,253.13083 C599.35912,256.148052 596.913191,258.311553 595.000329,257.963193 C593.087467,257.61477 592.432093,254.886404 593.536486,251.869182 C594.640815,248.851959 597.086809,246.688396 598.999671,247.036819 C600.912533,247.385241 601.567907,250.113607 600.463514,253.13083 Z" opacity=".428" transform="matrix(-1 0 0 1 1194 0)"/>
    <path stroke="#FFF" stroke-linecap="round" stroke-width="5" d="M629 201L682.532114 231.992277M690.539516 236.628141L705 245M629 210L652.531356 223.623417M660.73544 228.373149L705 254M629 219L683.962762 250.820546M689.245074 253.878727L705 263M629 229L665.591394 250.184491M670.829711 253.217201L705 273M629 239L680.569251 268.855882M686.171179 272.099104L705 283M629 248L656 263"/>
    <polyline stroke="#FFF" points="587 200 590.029 195.252 588.515 192.576 590.029 190.164 590.482 186.528 588.056 184.332 588.056 180.297 591 178"/>
    <polyline stroke="#FFF" points="600 214 608.624 220.393 609.419 224.119 612 225.833 612 230.771 609.419 232.68 610.503 239"/>
    <polyline stroke="#FFF" points="585 247 583 244.964 585 244"/>
    <polyline stroke="#FFF" points="597 254 595 253.21 597 251" transform="matrix(-1 0 0 1 1192 0)"/>
    <polygon fill="#4A4949" points="757 500.973 780.273 514 829 484.954 829 459.196 806.383 432 757 459.196"/>
    <polygon fill="#6F6F6F" points="780.273 482.582 780.273 514 829 484.954 829 459.196 806.383 432 757 459.196"/>
    <polygon fill="url(#banner-e)" points="766 458.754 781.653 475 806 461.721 790.763 445"/>
    <polygon fill="url(#banner-e)" points="808.422 461 812 458.992 796.949 442 793 444.257"/>
    <polygon fill="url(#banner-e)" points="815.422 457 819 454.992 803.949 438 800 440.257"/>
    <path stroke="url(#banner-e)" stroke-linecap="round" stroke-width="3" d="M705.5 403L705.5 432M710.5 406L710.5 435M721.5 412L721.5 441M716.5 409L716.5 438"/>
  </g>
</svg>
