<?xml version="1.0" encoding="UTF-8" standalone="no"?>
<svg width="953px" height="597px" viewBox="0 0 953 597" version="1.1" xmlns="http://www.w3.org/2000/svg" xmlns:xlink="http://www.w3.org/1999/xlink">
    <!-- Generator: Sketch 48.2 (47327) - http://www.bohemiancoding.com/sketch -->
    <title>Group 23</title>
    <desc>Created with Sketch.</desc>
    <defs>
        <filter x="-5.1%" y="-8.8%" width="110.1%" height="117.6%" filterUnits="objectBoundingBox" id="filter-1">
            <feGaussianBlur stdDeviation="10" in="SourceGraphic"></feGaussianBlur>
        </filter>
        <linearGradient x1="50%" y1="0%" x2="50%" y2="100%" id="linearGradient-2">
            <stop stop-color="#30DDF5" offset="0%"></stop>
            <stop stop-color="#2890CE" offset="100%"></stop>
        </linearGradient>
        <linearGradient x1="50%" y1="0%" x2="50%" y2="98.9696269%" id="linearGradient-3">
            <stop stop-color="#EBEEF0" offset="0%"></stop>
            <stop stop-color="#E0E0E0" offset="100%"></stop>
        </linearGradient>
        <linearGradient x1="19.8534443%" y1="-35.3056426%" x2="58.1104585%" y2="60.5799373%" id="linearGradient-4">
            <stop stop-color="#000000" offset="0%"></stop>
            <stop stop-color="#000000" stop-opacity="0" offset="100%"></stop>
        </linearGradient>
        <linearGradient x1="23.3810568%" y1="-20.9216018%" x2="59.183208%" y2="66.6034969%" id="linearGradient-5">
            <stop stop-color="#000000" offset="0%"></stop>
            <stop stop-color="#000000" stop-opacity="0" offset="100%"></stop>
        </linearGradient>
        <linearGradient x1="50%" y1="0%" x2="50%" y2="100%" id="linearGradient-6">
            <stop stop-color="#23CDED" offset="0%"></stop>
            <stop stop-color="#1784E2" offset="100%"></stop>
        </linearGradient>
        <linearGradient x1="50%" y1="0%" x2="50%" y2="100%" id="linearGradient-7">
            <stop stop-color="#D0E7FD" offset="0%"></stop>
            <stop stop-color="#BEDCFF" offset="100%"></stop>
        </linearGradient>
        <linearGradient x1="34.3607791%" y1="42.8032108%" x2="57.3172081%" y2="83.8324429%" id="linearGradient-8">
            <stop stop-color="#7693A2" offset="0%"></stop>
            <stop stop-color="#4A4F55" offset="100%"></stop>
        </linearGradient>
        <polygon id="path-9" points="0 0.154413917 30.3490618 0.154413917 30.3490618 35.0527751 0 35.0527751"></polygon>
        <linearGradient x1="50%" y1="100%" x2="50%" y2="3.061617e-15%" id="linearGradient-11">
            <stop stop-color="#FBCE59" offset="0%"></stop>
            <stop stop-color="#FDDE60" offset="100%"></stop>
        </linearGradient>
        <polygon id="path-12" points="0 0.154413917 30.3490618 0.154413917 30.3490618 35.0527751 0 35.0527751"></polygon>
        <polygon id="path-14" points="4.51751344e-05 0.0254464819 4.9327181 0.0254464819 4.9327181 5.72564454 4.51751344e-05 5.72564454"></polygon>
        <polygon id="path-16" points="0 0 16.182737 0 16.182737 18.6973799 0 18.6973799"></polygon>
        <polygon id="path-18" points="4.51751344e-05 0.0254464819 4.9327181 0.0254464819 4.9327181 5.72564454 4.51751344e-05 5.72564454"></polygon>
        <linearGradient x1="99.3941327%" y1="50%" x2="0%" y2="50%" id="linearGradient-20">
            <stop stop-color="#CDAC8F" offset="0%"></stop>
            <stop stop-color="#926B49" offset="100%"></stop>
        </linearGradient>
        <linearGradient x1="100%" y1="50%" x2="0%" y2="50%" id="linearGradient-21">
            <stop stop-color="#F79D1C" offset="0%"></stop>
            <stop stop-color="#F76B1C" offset="100%"></stop>
        </linearGradient>
        <linearGradient x1="50%" y1="0%" x2="50%" y2="100%" id="linearGradient-22">
            <stop stop-color="#FFF3C6" offset="0%"></stop>
            <stop stop-color="#F7B94F" offset="100%"></stop>
        </linearGradient>
        <linearGradient x1="50%" y1="0%" x2="50%" y2="100%" id="linearGradient-23">
            <stop stop-color="#FAD961" offset="0%"></stop>
            <stop stop-color="#EFA67C" offset="100%"></stop>
        </linearGradient>
        <linearGradient x1="50%" y1="0%" x2="50%" y2="100%" id="linearGradient-24">
            <stop stop-color="#ABD5FF" offset="0%"></stop>
            <stop stop-color="#78B5FB" offset="100%"></stop>
        </linearGradient>
        <linearGradient x1="50%" y1="0%" x2="50%" y2="100%" id="linearGradient-25">
            <stop stop-color="#B4EC51" offset="0%"></stop>
            <stop stop-color="#429321" offset="100%"></stop>
        </linearGradient>
        <linearGradient x1="50%" y1="1.66414222%" x2="50%" y2="100%" id="linearGradient-26">
            <stop stop-color="#3A3939" offset="0%"></stop>
            <stop stop-color="#6A5E5E" offset="100%"></stop>
        </linearGradient>
        <linearGradient x1="100%" y1="50%" x2="-2.22044605e-14%" y2="50%" id="linearGradient-27">
            <stop stop-color="#4A96DA" offset="0%"></stop>
            <stop stop-color="#81A9D6" offset="100%"></stop>
        </linearGradient>
    </defs>
    <g id="Call-Masking_Scenario1" stroke="none" stroke-width="1" fill="none" fill-rule="evenodd" transform="translate(-164.000000, -420.000000)">
        <g id="Group-23" transform="translate(164.000000, 418.000000)">
            <g id="Group-22">
                <polygon id="Path-14" stroke="#979797" fill-opacity="0.117074275" fill="#000000" filter="url(#filter-1)" points="421.379901 229.425811 137.775181 392.721821 456.94448 577 739.333317 415.224437"></polygon>
                <g id="Group-19">
                    <g id="Group-20" transform="translate(111.157423, 170.300539)">
                        <polygon id="Path-139" fill="url(#linearGradient-2)" points="2.81150426e-16 187.272972 342.782783 384.148248 648.288744 209.976122 648.288744 198.834757 304.91699 1.55525606 0 176.180745"></polygon>
                        <polygon id="Path-139-Copy" fill="url(#linearGradient-3)" points="0 174.817243 342.782783 371.706199 648.288744 197.52197 304.91699 0"></polygon>
                    </g>
                    <g id="Group-13" transform="translate(217.650897, 0.000000)">
                        <polygon id="Path-10" fill="url(#linearGradient-4)" points="210.654976 452.655455 262.735726 481.351752 417.034666 392.702156 367.285889 363.152291"></polygon>
                        <polygon id="Path-10" fill="url(#linearGradient-5)" points="90.0292228 291.403195 142.467892 322.808281 193.20844 280.107085 152.527186 255.48726"></polygon>
                        <polygon id="Path-98-Copy" fill="#B7B5B5" points="71.5138662 281.20356 107.60553 302.034331 169.757561 265.882942 169.757561 261.214736 134.757618 244.95283 71.5138662 276.605784"></polygon>
                        <polygon id="Path-98" fill="#D8D8D8" points="71.5138662 276.537792 107.60553 297.368562 169.757561 261.217174 134.757618 240.287062"></polygon>
                        <polygon id="Path-97" fill="#E3E3E3" points="120.485318 224.581817 120.485318 282.278976 143.805057 269.282995 143.805057 211.514825"></polygon>
                        <polygon id="Path-97-Copy" fill="#C0C0C0" transform="translate(108.825449, 246.896900) scale(-1, 1) translate(-108.825449, -246.896900) " points="97.1655791 224.581817 97.1655791 282.278976 120.485318 269.282995 120.485318 211.514825"></polygon>
                        <path d="M0.883528909,104.817634 L0.676743076,104.720448 L0.8508622,104.621263 L0.777324633,104.179203 L1.29813946,104.366476 L180.965198,2.02076972 L189.965919,4.82486299 L10.9756424,107.84628 L210.818283,179.705031 L39.4731318,291.038911 L31.057842,286.206086 L0.883528909,104.817634 Z" id="Combined-Shape" fill="url(#linearGradient-6)"></path>
                        <polygon id="Path-96-Copy" fill="#E4E4E4" points="39.608413 290.871854 9.3278956 108.844971 190.043558 4.66576819 219.368853 184.370799"></polygon>
                        <polygon id="Path-96-Copy-2" fill="url(#linearGradient-7)" points="42.8575341 284.65083 13.8933817 110.537081 186.752911 10.8867925 214.803367 182.779625"></polygon>
                    </g>
                    <g id="Group-3" transform="translate(314.816476, 228.622642)"></g>
                    <g id="Group-15" transform="translate(372.338499, 191.296496)">
                        <g id="Group" transform="translate(2.331974, 52.878706)">
                            <polygon id="Path-2" fill="url(#linearGradient-8)" points="61.7566725 213.537979 61.7566725 99.3430045 217.187636 9.20665628 217.187636 123.972813"></polygon>
                            <polygon id="Path-3" fill="url(#linearGradient-8)" points="61.8737607 213.805749 33.3220099 197.465306 33.3220099 153.799762 0.111424062 107.461804 0.111424062 94.6982437 40.3544558 117.347704 55.7601711 96.5134802 61.8737607 99.3021932"></polygon>
                            <polygon id="Path-4" fill="#98A6B6" points="0.0670266099 94.7413795 163.247786 0.450910879 192.783438 17.6041354 211.589844 6.20416421 217.064676 9.3379008 61.8461401 99.1664559 56.0680568 96.5271895 40.5558766 117.275838"></polygon>
                            <polygon id="Path-6" fill="#63E2F2" points="33.16227 106.69957 10.5016607 94.6663814 55.1595905 68.6104954 76.9961291 80.6379581"></polygon>
                            <polygon id="Path-6-Copy" fill="#63E2F2" points="80.9935587 78.8518343 58.3329494 66.8186458 102.990879 40.7627598 124.827418 52.7902225"></polygon>
                            <polygon id="Path-6-Copy-2" fill="#63E2F2" points="141.835452 44.9873877 119.174843 32.9541992 163.832773 6.89831319 185.669311 18.9257759"></polygon>
                            <polygon id="Path-4-Copy" fill="#EBEBEB" points="211.813895 6.33240846 217.064676 9.3379008 61.8461401 99.1664559 56.0680568 96.5271895"></polygon>
                        </g>
                        <g id="Group-5" transform="translate(104.938825, 0.000000)">
                            <polygon id="Path-78" fill="#E4F1FF" points="74.6231648 3.23645473 68.3412034 0.136514787 0.245809716 38.6529842 0.245809716 101.337146 6.04474841 105.904656 74.6231648 66.6367407"></polygon>
                            <polygon id="Path-77" fill="#A5AEB8" points="74.6231648 66.8396586 74.6231648 3.15192427 5.69159731 42.4446659 5.69159731 105.904656"></polygon>
                        </g>
                    </g>
                    <g id="Bikes" transform="translate(865.500000, 418.602426) scale(-1, 1) translate(-865.500000, -418.602426) translate(778.000000, 333.602426)">
                        <polygon id="Path-7-Copy" fill="#CAA335" opacity="0.75707654" points="0.622412962 88.3243445 106.140751 149.415703 155.715809 120.705076 155.715809 118.421197 151.609775 120.83542 49.9237369 62.3245997 0.622412962 86.4594948"></polygon>
                        <polygon id="Path-7-Copy-2" fill="#E9C24F" points="106.140751 147.195837 155.715809 118.421197 151.609775 120.83542 49.9237369 62.3245997 0.622412962 86.4594948"></polygon>
                        <path d="M102.698139,144.07964 L102.698139,89.6372331 C102.698139,81.178798 107.150639,73.3448924 114.417952,69.0169273 L148.222482,48.8850271 C150.550321,47.4987088 153.442744,47.4669233 155.800487,48.8017508 L151.987303,119.683994 L106.425611,150.460085 L106.425611,150.460085 C104.122721,149.161793 102.698139,146.723286 102.698139,144.07964 Z" id="Path-103-Copy-3" fill="#F5CD58"></path>
                        <g id="Page-1-Copy" transform="translate(8.713781, 80.398734)">
                            <g id="Group-3" transform="translate(6.373303, 0.147766)">
                                <mask id="mask-10" fill="white">
                                    <use xlink:href="#path-9"></use>
                                </mask>
                                <g id="Clip-2"></g>
                                <path d="M30.3490618,26.3268174 C30.3490618,34.6712126 23.5551208,37.5301364 15.1745309,32.7124826 C6.79394097,27.8948288 0,17.2248574 0,8.88046223 C0,0.535764922 6.79394097,-2.3231589 15.1745309,2.49449489 C23.5551208,7.31214867 30.3490618,17.9824223 30.3490618,26.3268174" id="Fill-1" fill="#64666A" mask="url(#mask-10)"></path>
                            </g>
                            <polygon id="Fill-4" fill="#64666A" points="27.4659009 38.1484871 33.8392039 33.6157889 9.01609928 2.02620673 2.83126398 6.39905173"></polygon>
                            <path d="M30.3490618,31.0072815 C30.3490618,39.3516767 23.5551208,42.2106005 15.1745309,37.3929467 C6.79394097,32.5752929 0,21.9053215 0,13.5609263 C0,5.21622904 6.79394097,2.35730522 15.1745309,7.174959 C23.5551208,11.9926128 30.3490618,22.6628864 30.3490618,31.0072815" id="Fill-6" fill="#888B90"></path>
                            <path d="M19.9509573,25.029801 C19.9509573,27.6563485 17.8125624,28.5562401 15.1746219,27.0399015 C12.5366815,25.5235629 10.3979831,22.1648335 10.3979831,19.5382861 C10.3979831,16.9117386 12.5366815,16.0118469 15.1746219,17.5281855 C17.8125624,19.0445241 19.9509573,22.4032535 19.9509573,25.029801" id="Fill-8" fill="#D8D8D8"></path>
                        </g>
                        <path d="M106.432617,150.851646 L106.432617,91.6755269 C106.432617,83.4990396 110.7367,75.9262642 117.761769,71.7425646 L155.721781,49.1359149 L155.721781,122.176978 C155.919162,129.501638 151.570227,135.751438 142.674975,140.926377 C133.779722,146.101316 121.698936,149.409739 106.432617,150.851646 Z" id="Path-103-Copy" fill="url(#linearGradient-11)"></path>
                        <g id="Page-1" transform="translate(131.951548, 129.635167)">
                            <g id="Group-3" transform="translate(6.373303, 0.147766)">
                                <mask id="mask-13" fill="white">
                                    <use xlink:href="#path-12"></use>
                                </mask>
                                <g id="Clip-2"></g>
                                <path d="M30.3490618,26.3268174 C30.3490618,34.6712126 23.5551208,37.5301364 15.1745309,32.7124826 C6.79394097,27.8948288 0,17.2248574 0,8.88046223 C0,0.535764922 6.79394097,-2.3231589 15.1745309,2.49449489 C23.5551208,7.31214867 30.3490618,17.9824223 30.3490618,26.3268174" id="Fill-1" fill="#64666A" mask="url(#mask-13)"></path>
                            </g>
                            <polygon id="Fill-4" fill="#64666A" points="27.4659009 38.1484871 33.8392039 33.6157889 9.01609928 2.02620673 2.83126398 6.39905173"></polygon>
                            <path d="M30.3490618,31.0072815 C30.3490618,39.3516767 23.5551208,42.2106005 15.1745309,37.3929467 C6.79394097,32.5752929 0,21.9053215 0,13.5609263 C0,5.21622904 6.79394097,2.35730522 15.1745309,7.174959 C23.5551208,11.9926128 30.3490618,22.6628864 30.3490618,31.0072815" id="Fill-6" fill="#888B90"></path>
                            <path d="M19.9509573,25.029801 C19.9509573,27.6563485 17.8125624,28.5562401 15.1746219,27.0399015 C12.5366815,25.5235629 10.3979831,22.1648335 10.3979831,19.5382861 C10.3979831,16.9117386 12.5366815,16.0118469 15.1746219,17.5281855 C17.8125624,19.0445241 19.9509573,22.4032535 19.9509573,25.029801" id="Fill-8" fill="#D8D8D8"></path>
                        </g>
                        <path d="M120.125702,92.7587883 L148.484914,76.0360116" id="Path-106" stroke="#FFEEB5" stroke-width="3.2" stroke-linecap="round"></path>
                        <path d="M120.125702,100.860986 L148.484914,84.1382095" id="Path-106-Copy" stroke="#FFEEB5" stroke-width="3.2" stroke-linecap="round"></path>
                        <path d="M120.125702,108.963184 L148.484914,92.2404075" id="Path-106-Copy-2" stroke="#FFEEB5" stroke-width="3.2" stroke-linecap="round"></path>
                        <path d="M0.462889594,86.4088411 L0.462889594,61.9797926 C0.462889594,49.5981226 6.96814478,38.1269653 17.5940695,31.7712219 L36.556922,20.4288657 C43.4953803,16.2787271 52.1318374,16.1896077 59.1544595,20.1956823 L93.6024927,39.8466599 L93.6024927,87.2080352 L47.7280648,113.569814 L0.462889594,86.4088411 Z" id="Path-104" fill="url(#linearGradient-11)"></path>
                        <polygon id="Path-103-Copy-2" fill="#F5CD58" points="47.9257981 113.456886 47.9257981 66.7483566 93.4197188 39.6549736 93.2222041 87.1050613"></polygon>
                        <path d="M5.04867599,88.3067798 C6.55850771,66.5909187 13.5358143,59.1735872 25.9805956,66.0547851 C38.425377,72.9359829 44.2660886,87.8106893 43.5027305,110.678904 C31.1632006,108.340677 22.2682812,105.5861 16.8179723,102.415174 C11.3676634,99.2442468 7.44456464,94.5414489 5.04867599,88.3067798 Z" id="Path-105" fill="#F5C542"></path>
                        <path d="M9.17667107,34.9944666 L58.0039404,62.7623878 L91.0699413,43.0071775 L91.0699416,32.7889775 C91.0699416,28.0102436 88.5618542,23.5821445 84.4633334,21.124824 C64.1060259,8.91934053 52.8609199,2.12799127 50.7280153,0.750776255 C47.1978689,-1.52863685 39.6929733,1.88558563 36.3402235,4.29321572 C34.5689089,5.5652075 28.5149241,9.4413188 18.178269,15.9215496 L18.1782691,15.9215498 C12.577356,19.4328608 9.17667107,25.5785195 9.17667107,32.1890817 L9.17667107,34.9944666 Z" id="Path-103" fill="#F0EEEE"></path>
                        <path d="M58.2620105,62.6416502 L58.2620105,53.2861237 C58.2620105,48.2228146 60.9212506,43.5315527 65.2656003,40.9308367 L89.9026922,26.1820061 C90.8156155,27.1592145 91.2720771,29.7911251 91.2720771,34.0777379 C91.2720771,38.3643507 91.2720771,41.3692818 91.2720771,43.0925313 L58.2620105,62.6416502 Z" id="Path-107" fill="#E1DFDF"></path>
                        <g id="Group-9" transform="translate(130.706722, 117.793493)">
                            <path d="M0,24.3044513 L31.2575966,43.0039738 L43.5689074,35.7473587 C42.9460595,24.46393 40.0094194,17.1819985 34.758987,13.9015643 C29.5085546,10.62113 21.6434452,5.98727528 11.1636587,0 L0,7.16067144 L0,24.3044513 Z" id="Path-108" fill="#FFDE77"></path>
                            <path d="M0,24.7685961 L31.1206468,43.6272198 C29.728987,30.9339107 26.419443,22.9330836 21.1920147,19.6247385 C15.9645864,16.3163933 8.90058154,12.2677978 0,7.47895196 L0,24.7685961 Z" id="Path-108-Copy" fill="#F5C542"></path>
                        </g>
                        <g id="Page-1-Copy-2" transform="translate(139.420504, 37.394760)">
                            <path d="M18.6723889,4.29389636 C18.6723889,5.66297493 17.5601182,6.13214844 16.1878323,5.34166675 C14.8155464,4.55118506 13.7031241,2.80071383 13.7031241,1.43163525 C13.7031241,0.0625566834 14.8155464,-0.40646548 16.1878323,0.384016211 C17.5601182,1.17434656 18.6723889,2.92481779 18.6723889,4.29389636" id="Fill-1" fill="#888B90"></path>
                            <polygon id="Fill-3" fill="#888B90" points="4.457708 13.4100622 17.91947 5.55764281 14.3037137 0.150674856 0.451751344 8.24070046"></polygon>
                            <g id="Group-7" transform="translate(0.000000, 7.985767)">
                                <mask id="mask-15" fill="white">
                                    <use xlink:href="#path-14"></use>
                                </mask>
                                <g id="Clip-6"></g>
                                <path d="M4.9327181,4.30041107 C4.9327181,5.66326515 3.82848723,6.1303572 2.46630634,5.34338243 C1.10427604,4.55640765 4.51751344e-05,2.81370227 4.51751344e-05,1.45069752 C4.51751344e-05,0.0878434412 1.10427604,-0.379248613 2.46630634,0.407726161 C3.82848723,1.19470094 4.9327181,2.93740632 4.9327181,4.30041107" id="Fill-5" fill="#B7B7B7" mask="url(#mask-15)"></path>
                            </g>
                        </g>
                        <g id="Group-10" transform="translate(121.992941, 41.757482)">
                            <path d="M11.6371191,24.669387 L24.8606308,7.28838732 C20.1956163,4.32651288 16.9528071,2.19214327 15.1322033,0.885278479 C12.4012976,-1.07501871 7.14085361,0.18181442 2.99811259,5.03979448 C-1.14462843,9.89777453 -0.574464179,16.3348671 2.16662306,18.1292102 C3.99401456,19.325439 7.15084656,21.5054979 11.6371191,24.669387 Z" id="Path-109" fill="#FCD95E"></path>
                            <g id="Page-1" transform="translate(9.958607, 6.232460)">
                                <mask id="mask-17" fill="white">
                                    <use xlink:href="#path-16"></use>
                                </mask>
                                <g id="Clip-2"></g>
                                <path d="M0,14.0223292 C0,18.4929526 3.62266751,20.0246599 8.09136851,17.4435363 C12.5600695,14.8624127 16.182737,9.14583014 16.182737,4.67520679 C16.182737,0.204421556 12.5600695,-1.32728582 8.09136851,1.25383781 C3.62266751,3.83496144 0,9.55170588 0,14.0223292" id="Fill-1" fill="#FFFFFF" mask="url(#mask-17)"></path>
                            </g>
                        </g>
                        <g id="Page-1" transform="translate(108.922268, 56.092140)">
                            <path d="M18.6723889,4.29389636 C18.6723889,5.66297493 17.5601182,6.13214844 16.1878323,5.34166675 C14.8155464,4.55118506 13.7031241,2.80071383 13.7031241,1.43163525 C13.7031241,0.0625566834 14.8155464,-0.40646548 16.1878323,0.384016211 C17.5601182,1.17434656 18.6723889,2.92481779 18.6723889,4.29389636" id="Fill-1" fill="#888B90"></path>
                            <polygon id="Fill-3" fill="#888B90" points="4.457708 13.4100622 17.91947 5.55764281 14.3037137 0.150674856 0.451751344 8.24070046"></polygon>
                            <g id="Group-7" transform="translate(0.000000, 7.985767)">
                                <mask id="mask-19" fill="white">
                                    <use xlink:href="#path-18"></use>
                                </mask>
                                <g id="Clip-6"></g>
                                <path d="M4.9327181,4.30041107 C4.9327181,5.66326515 3.82848723,6.1303572 2.46630634,5.34338243 C1.10427604,4.55640765 4.51751344e-05,2.81370227 4.51751344e-05,1.45069752 C4.51751344e-05,0.0878434412 1.10427604,-0.379248613 2.46630634,0.407726161 C3.82848723,1.19470094 4.9327181,2.93740632 4.9327181,4.30041107" id="Fill-5" fill="#606772" mask="url(#mask-19)"></path>
                            </g>
                        </g>
                    </g>
                    <g id="Group-12" transform="translate(0.000000, 212.292453)">
                        <path d="M11.0694764,175.490518 L13.6538678,221.814642 L13.6538678,230.391387 C19.9228048,235.721092 24.1132154,239.111981 26.2250997,240.564053 C28.3369841,242.016126 30.9104442,241.065629 33.9454802,237.712563 L21.1048532,221.814642 L25.2643288,173.648888 L11.0694764,175.490518 Z" id="Path-114" fill="#ECBF98"></path>
                        <path d="M30.4395867,165.86282 L32.7919393,210.094958 L32.7919393,218.671703 C39.0608762,224.001408 43.2512868,227.392297 45.3631712,228.844369 C47.4750555,230.296442 50.0485157,229.345945 53.0835517,225.992879 L40.2429246,210.094958 L44.4024002,161.929204 L30.4395867,165.86282 Z" id="Path-114-Copy" fill="#ECBF98"></path>
                        <path d="M5.05218014,112.111201 C9.0053292,116.241354 13.1723248,118.258942 17.5531669,118.163963 C21.9340091,118.068985 31.5799818,112.952042 46.4910851,102.813135 L49.4977177,176.113185 C44.5338531,181.831424 40.5066996,185.58673 37.4162572,187.379102 C32.7805936,190.067661 21.0199441,193.247619 17.5531669,193.980801 C11.2052024,195.32332 5.91088357,193.648536 1.67021046,188.956451 L5.05218014,112.111201 Z" id="Path-110" fill="url(#linearGradient-20)"></path>
                        <path d="M7.37110592,69.3502021 C2.45703531,66.8189502 3.31011376e-16,62.4777529 0,56.3266102 C0,47.0998963 7.37110592,47.0211822 3.68555296,39.8152718 C0,32.6093613 1.47965373,27.5664923 3.68555296,23.5735449 C5.89145219,19.5805975 3.10865013,4.3401966 18.2654509,0.944044553 C33.4222517,-2.45210749 37.5238388,4.10146393 39.9701444,8.15701849 C42.41645,12.2125731 43.0023533,17.0084715 42.41645,19.3833099 C41.8305467,21.7581483 37.5238388,26.7214012 39.9701444,29.6485091 C42.41645,32.5756169 46.4421472,36.4725833 45.0864497,42.5005288 C44.1826514,46.5191591 31.6108701,55.4690502 7.37110592,69.3502021 Z" id="Path-116" fill="#5A5A5A"></path>
                        <path d="M42.51334,38.2028566 C45.5075568,39.7046141 51.4738101,52.9417019 60.4121002,77.9141199 C67.8199145,58.7156836 72.5574958,48.2844976 74.6248439,46.620562 C76.6835034,48.2844976 78.0812848,49.5658766 78.8181883,50.4646991 C71.8437758,69.5544231 67.6443745,80.9530505 66.2199841,84.6605812 C64.0833986,90.2218772 59.8278113,89.0705507 57.4892154,88.4907733 C55.1506195,87.910996 40.7980553,52.7977889 38.7518857,48.9913182 C36.7057161,45.1848476 38.0220149,35.9502204 42.51334,38.2028566 Z" id="Path-113" fill="#ECBF98"></path>
                        <path d="M4.54987605,112.683224 C6.63665243,104.505893 7.64772613,98.6250719 7.58309714,95.0407616 C0.0520090487,75.0823801 4.09894516,55.8462112 5.37137327,52.5329411 C7.68995967,46.4955837 34.4009477,32.7097175 40.282521,35.5247834 C46.1640943,38.3398493 46.8389661,49.1300984 48.998983,55.1920152 C50.4389943,59.2332931 49.5333085,65.9968512 46.2819256,75.4826895 L44.4126184,86.3664819 L46.2819256,103.79683 C35.9544957,110.024626 29.0765158,114.071863 25.647986,115.93854 C20.5051912,118.738556 15.6117815,119.345491 11.2048046,117.642015 C8.26682011,116.506365 6.04851057,114.853435 4.54987605,112.683224 Z" id="Path-111" fill="url(#linearGradient-21)"></path>
                        <g id="Group-7" transform="translate(10.503519, 8.411907)">
                            <path d="M7.70258045,34.5308466 C10.3465152,38.1938027 13.2970372,39.1095418 16.5541462,37.2780637 C19.8112553,35.4465856 20.4617231,32.3404737 18.5055496,27.959728 L15.0281488,10.5148834 L7.70258045,14.9519539 L7.70258045,34.5308466 Z" id="Path-94" fill="#C19773"></path>
                            <path d="M11.5398726,29.1556946 C14.7610693,31.3781238 18.8042059,34.202489 23.4642054,32.3420248 C28.1242049,30.4815607 28.0091286,17.4146732 28.0091286,13.880113 C28.0091286,6.98863291 22.366083,1.40198445 15.4050335,1.40198445 C8.44398394,1.40198445 2.80093835,6.98863291 2.80093835,13.880113 C2.80093835,20.7715932 5.48121168,24.9755881 11.5398726,29.1556946 Z" id="Oval" fill="#DAB18D"></path>
                            <path d="M9.57499403,14.6922162 C19.4505741,14.0103044 25.1285475,10.5976344 26.6089143,4.45420648 C20.0984955,-1.31878682 16.1838707,-0.161102788 10.8261627,0.762495652 C7.25435734,1.37822794 3.64563645,4.38690967 0,9.78854082 C0.898208915,18.4332354 3.40197931,24.2832874 7.51131118,27.3386968 C7.51131118,23.6526016 8.19920546,19.4371081 9.57499403,14.6922162 Z" id="Path-99" fill="#5A5A5A"></path>
                        </g>
                        <path d="M9.23739558,54.1761573 C13.6089729,56.288979 14.9701633,70.0275545 13.3209668,95.3918838 L19.0598051,133.645146 L13.3209668,136.807366 L4.66101756,98.1192519 C3.34035895,66.7110337 4.86581829,52.0633355 9.23739558,54.1761573 Z" id="Path-112" fill="#ECBF98"></path>
                        <path d="M33.2640969,215.204613 C39.7953447,220.612875 43.704547,223.703911 44.9917039,224.47772 C46.2788608,225.25153 48.0792582,224.487162 50.3928963,222.184616 C52.2724323,224.350342 53.3954021,225.861607 53.7618059,226.718412 C54.3114116,228.003618 51.458824,229.350555 49.4963295,229.617795 C47.533835,229.885035 47.0398711,230.133872 43.7584611,227.831082 C40.477051,225.528292 34.984231,220.676673 33.686072,219.531143 C32.8206327,218.767456 32.6799744,217.32528 33.2640969,215.204613 Z" id="Path-117-Copy" fill="#577B8A"></path>
                        <g id="Group-11" transform="translate(70.723693, 28.039689)">
                            <polygon id="Path-118" fill="#C4C4C4" points="0 30.085343 0 6.20869135 9.5889034 2.27373675e-13 11.2037534 0.768973117 9.5889034 23.5299783 1.69064572 30.843658"></polygon>
                            <polygon id="Path-118-Copy" fill="#ACACAC" points="1.40046917 30.843658 1.40046917 6.92151323 11.2037534 0.700992226 11.2037534 24.2758031"></polygon>
                        </g>
                        <path d="M79.1265083,41.5947395 C80.8344596,37.9223904 82.2724324,35.9743451 83.4404267,35.7506035 C84.2767577,38.1508711 84.2767577,41.7742497 83.4404267,46.6207395 C82.5705278,47.473485 81.7128223,47.8998578 80.8673104,47.8998578 C80.3175985,46.1251476 79.7373311,44.0234415 79.1265083,41.5947395 Z" id="Path-119" fill="#ECBF98"></path>
                        <polygon id="Path-115" fill="#ECBF98" points="17.8703117 131.902494 20.8471806 136.727097 20.8471806 143.239086 20.0283009 143.239086 19.3587462 138.100979 18.300742 142.505512 20.8471806 148.175398 20.0283009 148.603582 16.6212626 143.239086 11.9326246 143.239086 13.3044571 134.209648"></polygon>
                        <path d="M13.5953861,226.557309 C20.1266338,231.96557 24.0358362,235.056606 25.3229931,235.830415 C26.6101499,236.604225 28.4105474,235.839857 30.7241855,233.537311 C32.6037215,235.703037 33.7266913,237.214303 34.0930951,238.071107 C34.6427008,239.356314 31.7901132,240.70325 29.8276187,240.97049 C27.8651242,241.237731 27.3711603,241.486567 24.0897503,239.183777 C20.8083402,236.880987 15.3155202,232.029369 14.0173612,230.883838 C13.1519219,230.120151 13.0112635,228.677975 13.5953861,226.557309 Z" id="Path-117" fill="#577B8A"></path>
                    </g>
                    <g id="Group-3-Copy-5" transform="translate(122.817292, 181.187332)">
                        <polygon id="Path-78" fill="#83ADB7" points="67.6272431 2.80333778 61.9154007 0 0 34.8312147 0 91.5177579 5.27265639 95.648248"></polygon>
                        <polygon id="Path-77" fill="#ABEFFF" points="67.6272431 60.94882 67.6272431 3.11051213 5.44127243 38.7943955 5.44127243 96.425876"></polygon>
                    </g>
                    <g id="Group-14" transform="translate(112.712072, 186.630728)">
                        <g id="Group-4" transform="translate(0.000000, 10.109164)">
                            <polygon id="Path-131" fill="url(#linearGradient-22)" points="6.9959217 40.0528037 28.2500907 27.7535957 28.2500907 3.88814016 6.9959217 16.3012019"></polygon>
                            <polygon id="Path-131-Copy" fill="url(#linearGradient-23)" transform="translate(3.932755, 26.232436) scale(-1, 1) translate(-3.932755, -26.232436) " points="0.60318537 40.0528037 7.26232561 36.4002971 7.26232561 12.4120675 0.60318537 16.3012019"></polygon>
                            <polygon id="Path-132" fill="#FFF1D0" points="0.58056607 12.4581917 21.4106012 0.691255586 28.2112511 3.88160667 7.06702986 16.2823368"></polygon>
                        </g>
                        <g id="Page-1" transform="translate(15.546493, 26.439353)">
                            <polygon id="Clip-2" points="0 0 6.21859706 0 6.21859706 6.99865229 0 6.99865229"></polygon>
                            <path d="M4.6639478,5.24927829 L4.6639478,10.8867925 L1.55464927,12.735212 L1.55464927,6.99865107 C0.625281494,6.99764063 0,6.37024004 0,5.24872507 C0,3.57531743 1.39209514,1.43547181 3.10929853,0.469326447 C4.82650192,-0.496818912 6.21859706,0.0765174264 6.21859706,1.74998566 C6.21859706,2.87150063 5.59331557,4.20249637 4.6639478,5.24927829 Z" id="Combined-Shape" fill="#D3A93A"></path>
                        </g>
                        <path d="M8.91103387,20.3961207 L8.91103387,10.0458305 C8.91103387,6.20502167 10.9023118,2.63881189 14.1720748,0.623752889 L14.1720748,0.623752889 C15.7944816,-0.376088782 17.9202339,0.128599919 18.9200756,1.75100665 C19.2554981,2.29528449 19.4331158,2.92204722 19.4331158,3.56138015 L19.4331158,14.6487294" id="Path-133" stroke="#7D7C7C" stroke-width="5" stroke-linecap="round"></path>
                    </g>
                    <g id="Group-3-Copy-6" transform="translate(769.551387, 264.393531)">
                        <polygon id="Path-78" fill="#83ADB7" points="67.6272431 2.80333778 61.9154007 0 0 34.8312147 0 91.5177579 5.27265639 95.648248"></polygon>
                        <polygon id="Path-77" fill="#ABEFFF" points="67.6272431 60.94882 67.6272431 3.11051213 5.44127243 38.7943955 5.44127243 96.425876"></polygon>
                    </g>
                    <g id="Group-14-Copy" transform="translate(763.332790, 266.726415)">
                        <g id="Group-4" transform="translate(0.000000, 10.109164)">
                            <polygon id="Path-131" fill="url(#linearGradient-22)" points="6.9959217 40.0528037 28.2500907 27.7535957 28.2500907 3.88814016 6.9959217 16.3012019"></polygon>
                            <polygon id="Path-131-Copy" fill="url(#linearGradient-23)" transform="translate(3.932755, 26.232436) scale(-1, 1) translate(-3.932755, -26.232436) " points="0.60318537 40.0528037 7.26232561 36.4002971 7.26232561 12.4120675 0.60318537 16.3012019"></polygon>
                            <polygon id="Path-132" fill="#FFF1D0" points="0.58056607 12.4581917 21.4106012 0.691255586 28.2112511 3.88160667 7.06702986 16.2823368"></polygon>
                        </g>
                        <g id="Page-1" transform="translate(15.546493, 26.439353)">
                            <polygon id="Clip-2" points="0 0 6.21859706 0 6.21859706 6.99865229 0 6.99865229"></polygon>
                            <path d="M4.6639478,5.24927829 L4.6639478,10.8867925 L1.55464927,12.735212 L1.55464927,6.99865107 C0.625281494,6.99764063 0,6.37024004 0,5.24872507 C0,3.57531743 1.39209514,1.43547181 3.10929853,0.469326447 C4.82650192,-0.496818912 6.21859706,0.0765174264 6.21859706,1.74998566 C6.21859706,2.87150063 5.59331557,4.20249637 4.6639478,5.24927829 Z" id="Combined-Shape" fill="#D3A93A"></path>
                        </g>
                        <path d="M8.91103387,20.3961207 L8.91103387,10.0458305 C8.91103387,6.20502167 10.9023118,2.63881189 14.1720748,0.623752889 L14.1720748,0.623752889 C15.7944816,-0.376088782 17.9202339,0.128599919 18.9200756,1.75100665 C19.2554981,2.29528449 19.4331158,2.92204722 19.4331158,3.56138015 L19.4331158,14.6487294" id="Path-133" stroke="#7D7C7C" stroke-width="5" stroke-linecap="round"></path>
                    </g>
                    <path d="M223.869494,195.184636 L193.553834,212.292453" id="Path-134-Copy" stroke="#B3F74C" stroke-width="2" stroke-dasharray="8"></path>
                    <polyline id="Path-134-Copy-2" stroke="#B3F74C" stroke-width="2" stroke-dasharray="8" points="815.024878 265.559973 475.334013 71.930593 445.407015 89.8160377"></polyline>
                    <path d="M271.696276,218.303175 L407.010052,136.02147" id="Path-135" stroke="#DFEEFF" stroke-width="7" stroke-linecap="round"></path>
                    <path d="M272.063622,232.437348 L407.377398,150.155643" id="Path-135-Copy" stroke="#DFEEFF" stroke-width="7" stroke-linecap="round"></path>
                    <path d="M272.063622,246.36122 L320.790197,216.731526" id="Path-135-Copy-2" stroke="#DFEEFF" stroke-width="7" stroke-linecap="round"></path>
                    <polygon id="Path-137" stroke="#7AA8DF" fill="url(#linearGradient-24)" points="296.160685 98.0814882 309.633557 178.504945 364.759706 144.735466 352.40253 64.5431267"></polygon>
                    <polygon id="Path-136" stroke="#7AB1F1" stroke-dasharray="6" points="287.166201 112.272841 298.230678 177.388664 372.143468 132.023746 363.333631 68.1341527"></polygon>
                    <path d="M307.988257,137.36982 C307.4438,131.050065 308.225056,127.340093 310.332024,126.239904 C313.492476,124.589621 319.236387,144.88235 323.879454,141.872564 C328.522521,138.862778 319.499939,108.994936 328.522521,103.382238 C337.545103,97.7695403 337.758764,126.239904 343.283591,122.779933 C348.808417,119.319961 342.266259,108.262562 346.114332,105.8224 C348.679714,104.195625 350.984437,106.19998 353.0285,111.835462" id="Path-138" stroke="#DFEEFF" stroke-width="2" stroke-linecap="round"></path>
                    <ellipse id="Oval-2" fill="#4A90E2" cx="328.030995" cy="104.202156" rx="2.3319739" ry="3.11051213"></ellipse>
                    <g id="Group-16" transform="translate(155.464927, 293.943396)">
                        <polygon id="Path-7" fill="#6A7E8A" points="0.213576137 58.1554099 96.8968755 114.4147 81.561076 70.6136995 0.213576137 23.7987905"></polygon>
                        <polygon id="Path-7-Copy-3" fill="#D8D8D8" points="41.1982055 35.1342475 137.881505 91.3935371 122.545705 47.592537 41.1982055 0.777628032"></polygon>
                        <polygon id="Path-8" fill="#647078" points="0.179581029 23.63616 40.8095432 0.388814016 122.535888 47.6197017 137.820661 91.3738953 97.2538702 114.720971 81.5931837 70.878726"></polygon>
                    </g>
                    <g id="Group-17" transform="translate(169.456770, 359.264151)">
                        <polygon id="Path-140" fill="#C6C5C5" points="0 20.0403278 15.3722978 11.001438 15.3722978 0.777628032 6.34672241 6.0572466"></polygon>
                        <polygon id="Path-140-Copy" fill="#48545C" points="7.77324633 23.928468 23.1455442 14.8895782 23.1455442 4.66576819 14.1199687 9.94538676"></polygon>
                        <polygon id="Path-141" fill="#516571" points="7.77897271 23.9159738 0.116493054 19.7769324 6.43310142 6.05249966 15.7050144 0.725544943 23.3486682 4.45985 14.0955811 9.98615242"></polygon>
                    </g>
                    <g id="Group-17-Copy" transform="translate(190.444535, 371.706199)">
                        <polygon id="Path-140" fill="#C6C5C5" points="0 20.0403278 15.3722978 11.001438 15.3722978 0.777628032 6.34672241 6.0572466"></polygon>
                        <polygon id="Path-140-Copy" fill="#48545C" points="7.77324633 23.928468 23.1455442 14.8895782 23.1455442 4.66576819 14.1199687 9.94538676"></polygon>
                        <polygon id="Path-141" fill="#516571" points="7.77897271 23.9159738 0.116493054 19.7769324 6.43310142 6.05249966 15.7050144 0.725544943 23.3486682 4.45985 14.0955811 9.98615242"></polygon>
                    </g>
                    <polyline id="Path-142-Copy" stroke="url(#linearGradient-25)" stroke-linecap="round" points="195.885808 388.360832 200.024337 379.004836 209.58368 374.039084"></polyline>
                    <polyline id="Path-143-Copy" stroke="url(#linearGradient-25)" stroke-width="3" stroke-linecap="round" points="276.798516 374.288531 267.549448 348.490167 209.877651 315.716981"></polyline>
                    <polygon id="Path-144-Copy" fill="#505E67" points="170.234095 321.900228 175.058132 324.776137 191.761247 315.652211 186.754659 312.606469"></polygon>
                    <polygon id="Path-144-Copy-2" fill="#505E67" points="178.007341 326.565996 182.831378 329.441905 199.534493 320.317979 194.527905 317.272237"></polygon>
                    <polygon id="Path-144" fill="#505E67" points="162.944757 317.535772 167.768795 320.411681 184.471909 311.287755 179.465321 308.242013"></polygon>
                    <g id="Group-18" transform="translate(680.159054, 312.606469)">
                        <path d="M28.8173337,212.785511 C21.0608669,220.663596 16.6202983,225.204753 15.4956277,226.408981 C13.8086218,228.215324 15.3476576,233.151354 17.1826336,235.344822 C18.4059509,236.807134 25.1808337,232.468618 37.5072819,222.329276 C38.2827821,217.661014 38.2827821,214.479759 37.5072819,212.785511 C36.7317817,211.091263 33.8351323,211.091263 28.8173337,212.785511 Z" id="Path-121" fill="#BBA693"></path>
                        <path d="M62.7673303,236.398922 C55.5647199,247.830106 51.3466173,254.608533 50.1130223,256.734204 C48.2626299,259.92271 53.8716554,260.632836 57.7226954,260.487837 C60.2900554,260.39117 62.464999,259.139959 64.2475262,256.734204 L71.5138662,246.201277 L71.5138662,236.398922 L62.7673303,236.398922 Z" id="Path-122" fill="#BBA693"></path>
                        <path d="M27.9836868,213.386346 C28.1000743,216.33082 28.9304971,218.325303 30.474955,219.369795 C32.019413,220.414286 34.4711002,219.970787 37.8300167,218.039297 L51.4420478,143.991504 L54.6281725,145.960611 L61.5141759,234.962885 C61.874167,238.13829 62.778714,240.247782 64.2278171,241.291361 C65.6769202,242.334941 68.0268909,241.89602 71.2777293,239.974597 C74.4746394,188.524513 76.2390103,159.25807 76.5708421,152.175267 C81.0659394,145.236739 82.0127553,136.641375 79.41129,126.389178 L72.627051,129.178856 L34.1625619,108.867925 L27.9836868,213.386346 Z" id="Path-120" fill="url(#linearGradient-26)"></path>
                        <path d="M35.8045179,32.9034664 C37.6850264,27.6420349 40.5251769,25.5924895 44.3249692,26.7548304 C48.1247616,27.9171713 49.1258012,30.8006979 47.3280882,35.4054102 C40.7989664,66.4780021 35.8408092,82.6351136 32.4536168,83.8767448 C29.0664243,85.118376 20.3214178,75.5624106 6.21859706,55.2088488 L11.5438987,49.5503064 L29.8608263,67.5794505 L35.8045179,32.9034664 Z" id="Path-124" fill="#6BA1D8"></path>
                        <g id="Group-11" transform="translate(10.378467, 44.606469) scale(-1, 1) translate(-10.378467, -44.606469) translate(2.878467, 24.106469)">
                            <polygon id="Path-118" fill="#C4C4C4" points="0 39.4424915 0 8.13971959 12.640418 2.27373675e-13 14.769168 1.00813927 12.640418 30.8482761 2.22866657 40.4366577"></polygon>
                            <polygon id="Path-118-Copy" fill="#ACACAC" points="1.846146 40.4366577 1.846146 9.07424344 14.769168 0.919014947 14.769168 31.8260674"></polygon>
                        </g>
                        <path d="M34.2022838,108.993471 C47.0617326,119.664924 59.6669059,126.362519 72.0178038,129.086253 C74.936617,127.924403 77.3500825,126.913086 79.2582004,126.052303 C80.6636301,109.399676 81.6270572,97.8920918 82.1484815,91.5295504 C83.6259959,73.5005722 84.456556,62.4795206 84.6401616,58.4663954 C85.0613602,49.2601282 84.0867847,47.1092513 79.2582004,43.802104 C74.4296161,40.4949567 51.2864349,28.7588129 47.2065478,26.7289161 C43.1266607,24.6990193 38.7284385,25.272872 38.2790878,31.0103282 C38.0690452,33.692222 37.3381993,47.2729757 36.0865503,71.7525891 C35.7308984,78.7083904 35.1028096,91.1220176 34.2022838,108.993471 Z" id="Path-123" fill="url(#linearGradient-27)"></path>
                        <g id="Group-7" transform="translate(58.291191, 25.776280) scale(-1, 1) translate(-58.291191, -25.776280) translate(44.291191, 7.776280)">
                            <path d="M5.59673736,31.964892 C8.70439518,35.7708895 12.1724129,36.7223889 16.0007904,34.8193901 C19.8291679,32.9163914 20.5937221,29.6889833 18.2944529,25.137166 L14.2071463,11.0064275 L5.59673736,15.6167692 L5.59673736,31.964892 Z" id="Path-94" fill="#CAA07C"></path>
                            <path d="M12.4096468,29.4673011 C15.953548,31.8287427 19.1212379,34.2712661 24.2480835,32.2944304 C29.3749291,30.3175948 27.7335865,17.0142778 27.7335865,13.2586319 C27.7335865,5.93609169 21.5252117,0 13.8667933,0 C6.20837481,0 0,5.93609169 0,13.2586319 C0,20.5811721 5.74401962,25.0257302 12.4096468,29.4673011 Z" id="Oval" fill="#ECBF98"></path>
                            <path d="M0,15.0050581 L1.19297532,22.5420735 L2.91943225,21.6849838 C3.1091226,18.9113232 3.59992436,17.6785668 4.39183753,17.9867146 C5.57970728,18.4489363 5.24112855,22.5119019 6.88956286,23.2298337 C10.2904075,20.6897031 11.1852456,17.7464992 11.1852456,13.7781954 C11.1852456,11.1326595 10.9726928,8.98580048 10.5475872,7.33761836 L0,15.0050581 Z" id="Path-130" fill="#000000" transform="translate(5.592623, 15.283726) scale(-1, 1) translate(-5.592623, -15.283726) "></path>
                        </g>
                        <path d="M2.3348697,50.5458221 C-0.265301839,46.6684131 -0.693759461,42.5917954 1.04949684,38.3159689 C4.30506141,37.5594966 6.79806572,38.8256316 8.52850977,42.1143741 C8.67340195,45.71386 8.10458339,48.0189728 6.82205408,49.0297125 C5.53952477,50.0404522 4.04379665,50.5458221 2.3348697,50.5458221 Z" id="Path-127" fill="#ECBF98"></path>
                        <path d="M43.5807433,13.9973046 L62.1859706,24.8741325 C56.2447673,30.3950408 49.6674228,31.0268071 42.4539371,26.7694314 C35.2404515,22.5120558 35.6160536,18.2546802 43.5807433,13.9973046 Z" id="Path-128" fill="#66A0D8"></path>
                        <path d="M67.3786729,134.52965 L63.7406199,139.32578 L64.8912118,143.031605 L65.5596464,149.229624 C70.097099,149.603959 73.1954495,148.57625 74.8546977,146.146497 C75.2185588,143.32691 75.4004894,140.777106 75.4004894,138.497087 C74.5292306,135.852129 73.8465761,134.52965 73.3525259,134.52965 C72.8584757,134.52965 70.8671913,134.52965 67.3786729,134.52965 Z" id="Path-126" fill="#ECBF98"></path>
                        <path d="M82.0165355,49.1620803 C86.9142198,47.455006 86.6219415,58.9797491 86.9142198,62.0496511 C87.1090719,64.0962524 87.1090719,75.9148 86.9142198,97.5052937 L74.2886985,136.098095 C71.1127804,137.529242 68.8922952,136.950893 67.6272431,134.363049 C68.3935621,130.099715 71.1944951,116.287549 76.030042,92.9265499 C76.030042,76.642909 76.030042,66.8020814 76.030042,63.4040673 C76.030042,58.307046 77.1188513,50.8691547 82.0165355,49.1620803 Z" id="Path-125" fill="#609DD9"></path>
                        <path d="M43.5301794,14.5530629 C43.7136353,10.987382 44.4521509,8.05039891 45.7457261,5.7421138 C47.686089,2.27968614 56.7748005,-2.42491013 63.5152354,1.46492366 C70.2485557,4.49529209 73.1072891,10.13034 72.0914357,18.3700674 L61.7394742,25.6617251 L43.5301794,14.5530629 Z" id="Path-129" fill="#5A90C4"></path>
                    </g>
                    <polyline id="Path-134" stroke="#B3F74C" stroke-width="2" stroke-dasharray="8" points="67.4445099 312.204476 132.28433 354.967174 132.28433 284.490566"></polyline>
                    <polyline id="Path-142" stroke="url(#linearGradient-25)" stroke-linecap="round" points="175.193069 376.143135 179.331599 366.787139 188.890941 361.821387"></polyline>
                    <polyline id="Path-143" stroke="url(#linearGradient-25)" stroke-width="3" stroke-linecap="round" points="259.341998 383.472494 250.092929 357.67413 222.975604 342.264152 240.312146 333.071817"></polyline>
                </g>
                <path d="" id="Path-16" stroke="#979797"></path>
                <path d="" id="Path-30" stroke="#979797"></path>
            </g>
        </g>
    </g>
</svg>